<?xml version="1.0" encoding="UTF-8"?>
<svg id="Layer_1" xmlns="http://www.w3.org/2000/svg" version="1.1" viewBox="0 0 512 512">
  <!-- Generator: Adobe Illustrator 30.0.0, SVG Export Plug-In . SVG Version: 2.1.1 Build 123)  -->
  <defs>
    <style>
      .st0 {
        fill: #1387cf;
      }

      .st1 {
        fill: #1d9e50;
      }

      .st2 {
        fill: #1b97da;
      }

      .st3 {
        fill: #8dd94f;
      }

      .st4 {
        fill: #fff;
      }

      .st5 {
        fill: #67c135;
      }

      .st6 {
        fill: #1278c2;
      }

      .st7 {
        fill: #1383cc;
      }

      .st8 {
        fill: #1470bd;
      }

      .st9 {
        fill: #1273be;
      }

      .st10 {
        fill: #1271bc;
      }

      .st11 {
        fill: #4eb7eb;
      }

      .st12 {
        fill: #49b6ea;
      }

      .st13 {
        fill: #47b5e9;
      }

      .st14 {
        fill: #118fcf;
      }

      .st15 {
        fill: #eff8fe;
      }

      .st16 {
        fill: #7acd3a;
      }

      .st17 {
        fill: #139148;
      }

      .st18 {
        fill: #165eab;
      }

      .st19 {
        fill: #42b2e9;
      }

      .st20 {
        fill: #1a96da;
      }

      .st21 {
        fill: #126ab5;
      }

      .st22 {
        fill: #d9effb;
      }

      .st23 {
        fill: #feffff;
      }
    </style>
  </defs>
  <g id="Generative_Object">
    <rect class="st23" x="67.1" y="58.1" width="380.12" height="380.12"/>
    <path class="st18" d="M312.84,324.63c-.13,2.53,2.76,5.29,4.27,7.42l32.11,12.99c-19.25,18.28-49.53,31.3-75.91,34.15-66.87,7.23-132.16-33.41-149.97-98.74h38.61c26.15,57.31,97.48,78.96,150.9,44.17Z"/>
    <path class="st5" d="M138.37,192.48l-5.94-1.48c21.59-41.88,66.61-71.23,113.78-74.61,47.23-3.38,95.09,17.53,121.94,56.61l-18.37,31.37-40.46-12.25,18.37-8.35c-18.02-17.49-42.26-27.87-67.37-29.51-42.12-2.75-93.23,4.04-121.94,38.23Z"/>
    <path class="st0" d="M349.22,345.04l-32.11-12.99c-1.51-2.13-4.4-4.9-4.27-7.42,16.16-10.53,28.13-25.09,37.31-41.95,1.56,1.96-2.98,10.88-2.78,11.69l19.12,10.58c2.29,2.96-4.1,20.2-5.75,23.94-3.31,7.47-5.68,10.62-11.51,16.15Z"/>
    <polygon class="st20" points="259.94 225.14 288.34 225.7 287.78 234.42 269.78 234.61 269.96 244.07 285.37 244.26 285.18 252.98 269.78 253.17 269.78 263.19 288.52 263.38 288.15 272.66 259.39 272.47 259.94 225.14"/>
    <path class="st8" d="M200.55,168.35c.33-.02,1.16-.11.74.37-19.29,10.71-33.26,28.2-42.69,47.89l-28.4-.19c11.13-17.53,28.36-31.84,47.33-40.28,4.6-2.04,18.56-7.47,23.01-7.8Z"/>
    <path class="st2" d="M226.53,225.14l28.4.56-.56,8.72h-17.82c-.03,1.46-.71,9.36,0,9.65l15.03.19-.56,8.72-14.66.19v10.02l18.37.19-.37,9.28-28.4-.19.56-47.33Z"/>
    <path class="st10" d="M130.95,258.18c.24,6.92,14.59,8.38,13.36.56-.63-3.99-12.25-6.7-15.22-9.47-8.64-12.66-3.9-26.18,12.44-24.87,2.17.17,10.68,3.37,11.32,5.38.47,1.47-4.35,8.84-5.75,8.72-.37-.03-3.56-4.08-5.94-4.45-3.75-.59-7.3,1.77-5.75,5.75,1.85,4.77,17.69,5.44,19.3,16.33s-7.07,17.91-17.63,17.26c-4.75-.29-13.57-3.95-13.55-9.47.02-6.36,4.09-1.51,7.42-5.75Z"/>
    <polygon class="st6" points="291.87 225.14 323.98 225.7 323.42 234.42 312.84 234.61 312.28 272.66 302.45 272.47 302.45 234.61 291.87 234.42 291.87 225.14"/>
    <path class="st7" d="M156.37,225.14l30.62.56-.19,8.72-10.58.56-.19,37.68-9.84-.19v-37.49l-10.21-.19c-.96-.33-.85-9.08.37-9.65Z"/>
    <path class="st16" d="M375.02,183.57c6.02,10.1,10.7,21.04,13.55,32.48l-34.34.56c-.33-.12-1.35-2.09-1.3-2.41.1-.66,7.52-8.11,8.91-10.02,4.76-6.57,8.6-13.9,13.18-20.6Z"/>
    <path class="st17" d="M380.96,280.45c.79-.42,6.4.32,7.8,0-2.19,11.46-7.77,22.38-13.36,32.67l5.57-32.67Z"/>
    <path class="st3" d="M354.6,280.45l16.52.56-3.16,14.66c-2.27-1.38-7.59-2.92-9.09-5.01s-2.59-7.58-5.2-9.65l.93-.56Z"/>
    <path class="st15" d="M130.95,258.18c-.03-.75,1.19-3.2.74-5.38-.37-1.78-1.71-2.22-2.6-3.53,2.97,2.76,14.59,5.47,15.22,9.47,1.23,7.82-13.12,6.36-13.36-.56Z"/>
    <path class="st1" d="M138.37,192.48c-4.63,5.51-7.92,11.81-11.14,18.19l-2.23-1.86c2.12-6.57,4.26-11.69,7.42-17.82l5.94,1.48Z"/>
    <path class="st22" d="M127.79,217.35c.35.02.71-.14.93.19-.85,4-4.14,7.26-5.38,11.32.98-1.81.53-9.93.93-10.58.1-.16,3.34-.94,3.53-.93Z"/>
    <path class="st14" d="M127.24,210.67c-1.02,2.03-2.02,7.6-4.64,5.94-.65-.8,2.05-6.68,2.41-7.8l2.23,1.86Z"/>
    <path class="st11" d="M158.23,216.98c.95.43-.87,2.57-1.11,2.97-.29-.99.82-2.04,1.11-2.97Z"/>
    <path class="st12" d="M156.75,220.32c.89.04-.4,2.77-1.11,2.23.12-.75.89-1.45,1.11-2.23Z"/>
    <path class="st19" d="M154.15,226.63c1.06.02-.18,1.57-.74,1.11-.66-.47.68-1.11.74-1.11Z"/>
    <path class="st13" d="M155.63,222.92c1.03.01-.24,1.73-.74,1.48l.74-1.48Z"/>
    <g>
      <path class="st21" d="M362.77,225.14c7.79.6,18.58-1.56,25.61,2.23,10.03,5.4,8.71,22.92-2.23,26.36l-.19.93,10.21,17.63c-.4.38-10.63.6-11.14.37-1.46-.68-8.9-17.36-10.02-17.82-.45-.18-2.13-.09-2.41.56-.79,1.78.66,15.77,0,16.7h-10.39l.56-46.96Z"/>
      <path class="st4" d="M373.16,234.05c15.91-2.84,14.95,16.16-.56,12.44l.56-12.44Z"/>
    </g>
    <g>
      <path class="st2" d="M190.15,225.14c8.51.55,22.41-2.29,28.4,5.38s2.65,20.05-6.68,23.01l10.95,19.12c-2.36-.51-8.97.68-10.77,0-.98-.37-9.4-17.86-10.39-18.19-.5-.17-1.41,0-1.67.56v17.45h-10.02l.19-47.33Z"/>
      <path class="st4" d="M200.55,234.42c14.73-2.87,13.25,15.58-.56,11.32l.56-11.32Z"/>
    </g>
    <g>
      <path class="st9" d="M335.67,225.14c.42-.21,8.85-.17,9.28,0,.27.11.74.96.93,1.3,1.19,2.13,13,41.25,13.36,44.17.08.68.46,1.62-.19,2.04-.45.18-9.2.18-9.65,0-1.26-.5-1.95-7.37-2.97-7.8-.58-.24-12.07-.3-12.62,0s-1.61,7.38-2.6,7.8c-.61.26-9.95.15-10.21-.56l14.66-46.96Z"/>
      <polygon class="st4" points="340.12 238.88 344.58 256.32 336.23 256.14 340.12 238.88"/>
    </g>
  </g>
</svg>