<?xml version="1.0" encoding="UTF-8"?>
<svg id="Layer_1" xmlns="http://www.w3.org/2000/svg" version="1.1" xmlns:xlink="http://www.w3.org/1999/xlink" viewBox="0 0 512 512">
  <!-- Generator: Adobe Illustrator 30.0.0, SVG Export Plug-In . SVG Version: 2.1.1 Build 123)  -->
  <defs>
    <style>
      .st0 {
        fill: #08b4eb;
      }

      .st1 {
        fill: #69e541;
      }

      .st2 {
        fill: #004eaf;
      }

      .st3 {
        fill: #4a7cae;
      }

      .st4 {
        fill: #8badcd;
      }

      .st5 {
        fill: #022362;
      }

      .st6 {
        fill: #06589f;
      }

      .st7 {
        fill: #0a93dc;
      }

      .st8 {
        fill: #b0e6f7;
      }

      .st9 {
        fill: #f6fcfe;
      }

      .st10 {
        fill: #1e4cad;
      }

      .st11 {
        fill: #3b4bc8;
      }

      .st12 {
        fill: #093f87;
      }

      .st13 {
        fill: #07a7e8;
      }

      .st14 {
        fill: #020e34;
      }

      .st15 {
        fill: #0045a9;
      }

      .st16 {
        fill: #07215c;
      }

      .st17 {
        fill: #197b3f;
      }

      .st18 {
        fill: #4fd442;
      }

      .st19 {
        fill: #fafde8;
      }

      .st20 {
        fill: #37529c;
      }

      .st21 {
        fill: #011159;
      }

      .st22 {
        fill: #39daf7;
      }

      .st23 {
        fill: #415fa4;
      }

      .st24 {
        fill: #0692d9;
      }

      .st25 {
        fill: #011c60;
      }

      .st26 {
        fill: #8cbfd5;
      }

      .st27 {
        fill: #01135d;
      }

      .st28 {
        fill: #357767;
      }

      .st29 {
        fill: #0b99e3;
      }

      .st30 {
        fill: #0955a5;
      }

      .st31 {
        fill: #c5f1fb;
      }

      .st32 {
        fill: #05a3c6;
      }

      .st33 {
        fill: #23a9e4;
      }

      .st34 {
        fill: #2de474;
      }

      .st35 {
        fill: #051e5e;
      }

      .st36 {
        fill: #0b77c1;
      }

      .st37 {
        fill: #7de926;
      }

      .st38 {
        fill: #034451;
      }

      .st39 {
        fill: #aec6e0;
      }

      .st40 {
        fill: #071b53;
      }

      .st41 {
        fill: #5675a6;
      }

      .st42 {
        fill: #050b4e;
      }

      .st43 {
        fill: #74e941;
      }

      .st44 {
        fill: #5ba675;
      }

      .st45 {
        fill: #90e24c;
      }

      .st46 {
        fill: #b9b6db;
      }

      .st47 {
        fill: #26914f;
      }

      .st48 {
        fill: #549a41;
      }

      .st49 {
        fill: #839ab0;
      }

      .st50 {
        fill: #5de339;
      }

      .st51 {
        fill: #133773;
      }

      .st52 {
        fill: #030f3e;
      }

      .st53 {
        fill: #b0fb50;
      }

      .st54 {
        fill: #0f2560;
      }

      .st55 {
        fill: #063e8b;
      }

      .st56 {
        fill: #078ed8;
      }

      .st57 {
        fill: #5bc44a;
      }

      .st58 {
        fill: #42a8d1;
      }

      .st59 {
        fill: #95aeca;
      }

      .st60 {
        fill: #fff;
      }

      .st61 {
        fill: #178ecd;
      }

      .st62 {
        fill: #eff3ff;
      }

      .st63 {
        fill: #8cee41;
      }

      .st64 {
        fill: #48a6d9;
      }

      .st65 {
        fill: #041f62;
      }

      .st66 {
        fill: #13c684;
      }

      .st67 {
        fill: #011f7c;
      }

      .st68 {
        fill: #89cfa1;
      }

      .st69 {
        fill: #68ea3c;
      }

      .st70 {
        fill: #2ebfe8;
      }

      .st71 {
        fill: #39cdf7;
      }

      .st72 {
        fill: #5ed4f0;
      }

      .st73 {
        fill: #0857a6;
      }

      .st74 {
        fill: #053e55;
      }

      .st75 {
        fill: #2b75a8;
      }

      .st76 {
        fill: #030d5c;
      }

      .st77 {
        fill: #3f6c9c;
      }

      .st78 {
        fill: #154386;
      }

      .st79 {
        fill: #fdfef6;
      }

      .st80 {
        fill: #052063;
      }

      .st81 {
        fill: #5085b8;
      }

      .st82 {
        fill: #52c2df;
      }

      .st83 {
        fill: #098dd7;
      }

      .st84 {
        fill: #7a9dca;
      }

      .st85 {
        fill: #0080dc;
      }

      .st86 {
        fill: #0d195c;
      }

      .st87 {
        fill: #098fd7;
      }

      .st88 {
        fill: #149ce3;
      }

      .st89 {
        fill: #daeff9;
      }

      .st90 {
        fill: #1dc6f6;
      }

      .st91 {
        fill: #19cef1;
      }

      .st92 {
        fill: #314774;
      }

      .st93 {
        fill: #a1f826;
      }

      .st94 {
        fill: #f6ffff;
      }

      .st95 {
        fill: #b3ff6a;
      }

      .st96 {
        fill: #a5c1d0;
      }

      .st97 {
        fill: #0585d5;
      }

      .st98 {
        fill: #0982cd;
      }

      .st99 {
        fill: #769ebb;
      }

      .st100 {
        fill: #cef95a;
      }

      .st101 {
        fill: #6be73f;
      }

      .st102 {
        fill: #09beee;
      }

      .st103 {
        fill: #08a1e1;
      }

      .st104 {
        fill: #1a4695;
      }

      .st105 {
        fill: #93ff0e;
      }

      .st106 {
        fill: #f9fefe;
      }

      .st107 {
        fill: #00001d;
      }

      .st108 {
        fill: #2bd7f8;
      }

      .st109 {
        fill: #031155;
      }

      .st110 {
        fill: #061767;
      }

      .st111 {
        fill: #5bc0e8;
      }

      .st112 {
        fill: #f4fcfa;
      }

      .st113 {
        fill: #99e1f9;
      }

      .st114 {
        fill: #0562b9;
      }

      .st115 {
        fill: #000666;
      }

      .st116 {
        fill: #030846;
      }

      .st117 {
        fill: #55e2f4;
      }

      .st118 {
        fill: #135cb7;
      }

      .st119 {
        fill: #43b05d;
      }

      .st120 {
        fill: #0f9ce2;
      }

      .st121 {
        fill: #041d5d;
      }

      .st122 {
        fill: #8af041;
      }

      .st123 {
        fill: #71e63e;
      }

      .st124 {
        fill: #176869;
      }

      .st125 {
        fill: #03367c;
      }

      .st126 {
        fill: #dae6ef;
      }

      .st127 {
        fill: #0086df;
      }

      .st128 {
        fill: #dffaff;
      }

      .st129 {
        fill: #6aeefe;
      }

      .st130 {
        fill: #021461;
      }

      .st131 {
        fill: #041f61;
      }

      .st132 {
        fill: #31a28e;
      }

      .st133 {
        fill: #5dc2f0;
      }

      .st134 {
        fill: #000029;
      }

      .st135 {
        fill: #032a6e;
      }

      .st136 {
        fill: #276ea3;
      }

      .st137 {
        fill: #013682;
      }

      .st138 {
        fill: #0da3eb;
      }

      .st139 {
        fill: #001e66;
      }

      .st140 {
        fill: #9d90c1;
      }

      .st141 {
        fill: #63d9fb;
      }

      .st142 {
        fill: #0ea062;
      }

      .st143 {
        fill: #506a5e;
      }

      .st144 {
        fill: #0a4f9b;
      }

      .st145 {
        fill: #fffefe;
      }

      .st146 {
        fill: #8ec1ec;
      }

      .st147 {
        fill: #0a1659;
      }

      .st148 {
        fill: #0d92e6;
      }

      .st149 {
        fill: #456dab;
      }

      .st150 {
        fill: #023680;
      }

      .st151 {
        fill: #fefffb;
      }

      .st152 {
        fill: #4cda41;
      }

      .st153 {
        fill: #051f66;
      }

      .st154 {
        fill: #c6dae5;
      }

      .st155 {
        fill: #f3feff;
      }

      .st156 {
        fill: #022f69;
      }

      .st157 {
        fill: #378465;
      }

      .st158 {
        fill: #051f60;
      }

      .st159 {
        fill: #021764;
      }

      .st160 {
        fill: #041e60;
      }

      .st161 {
        fill: #00034e;
      }

      .st162 {
        fill: #031e5f;
      }

      .st163 {
        fill: #3666b3;
      }

      .st164 {
        fill: #ecfbfc;
      }

      .st165 {
        fill: #1c9b54;
      }

      .st166 {
        fill: #e3f7ff;
      }

      .st167 {
        fill: #abc4d7;
      }

      .st168 {
        fill: #bdedfa;
      }

      .st169 {
        fill: #0991d8;
      }

      .st170 {
        fill: #f5fbf6;
      }

      .st171 {
        fill: #4872ac;
      }

      .st172 {
        fill: #011c5d;
      }

      .st173 {
        fill: #061f5f;
      }

      .st174 {
        fill: #7291b6;
      }

      .st175 {
        fill: #8aff2e;
      }

      .st176 {
        fill: #6de540;
      }

      .st177 {
        fill: #0e226f;
      }

      .st178 {
        fill: #102b75;
      }

      .st179 {
        fill: #5ceafc;
      }

      .st180 {
        fill: #9bec2b;
      }

      .st181 {
        fill: #b9f447;
      }

      .st182 {
        fill: #fffefd;
      }

      .st183 {
        fill: #09bcf4;
      }

      .st184 {
        fill: #60c64f;
      }

      .st185 {
        fill: #17a6e6;
      }

      .st186 {
        fill: #5dc6ef;
      }

      .st187 {
        fill: #0565ba;
      }

      .st188 {
        fill: #98ef70;
      }

      .st189 {
        fill: #49a644;
      }

      .st190 {
        fill: #31b435;
      }

      .st191 {
        fill: #00207c;
      }

      .st192 {
        fill: #42db51;
      }

      .st193 {
        fill: #031779;
      }

      .st194 {
        fill: #051c61;
      }

      .st195 {
        fill: #054d92;
      }

      .st196 {
        fill: #24d370;
      }

      .st197 {
        fill: #a7f357;
      }

      .st198 {
        fill: #0674c4;
      }

      .st199 {
        fill: #569fc9;
      }

      .st200 {
        fill: #18488b;
      }

      .st201 {
        fill: #f6fea4;
      }

      .st202 {
        fill: #fefeff;
      }

      .st203 {
        fill: #0975c2;
      }

      .st204 {
        fill: #b7fb96;
      }

      .st205 {
        fill: #01155c;
      }

      .st206 {
        fill: #12c0f5;
      }

      .st207 {
        fill: #06205f;
      }

      .st208 {
        fill: #072772;
      }

      .st209 {
        fill: #3fb09a;
      }

      .st210 {
        fill: #89e651;
      }

      .st211 {
        fill: #0858ab;
      }

      .st212 {
        fill: #4e7eba;
      }

      .st213 {
        fill: #002d7a;
      }

      .st214 {
        fill: #3b97d3;
      }

      .st215 {
        fill: #24d1f9;
      }

      .st216 {
        fill: #2f5896;
      }

      .st217 {
        fill: #66acd5;
      }

      .st218 {
        fill: #0046d1;
      }

      .st219 {
        fill: #00004c;
      }

      .st220 {
        fill: #89a6eb;
      }

      .st221 {
        fill: #031d60;
      }

      .st222 {
        fill: #000347;
      }

      .st223 {
        fill: #5abfef;
      }

      .st224 {
        fill: #b5d9e5;
      }

      .st225 {
        fill: #77ec40;
      }

      .st226 {
        fill: #e7ff5f;
      }

      .st227 {
        fill: #041361;
      }

      .st228 {
        fill: #17a8eb;
      }

      .st229 {
        fill: #0450a6;
      }

      .st230 {
        fill: #084b60;
      }

      .st231 {
        fill: #080f5d;
      }

      .st232 {
        fill: #bfeaf7;
      }

      .st233 {
        fill: #00225c;
      }

      .st234 {
        fill: #047fd2;
      }

      .st235 {
        fill: #000014;
      }

      .st236 {
        fill: #6c82b3;
      }

      .st237 {
        fill: #042362;
      }

      .st238 {
        fill: #41e1f1;
      }

      .st239 {
        fill: #fdffed;
      }

      .st240 {
        fill: #eff3f9;
      }

      .st241 {
        fill: #e5f4fc;
      }

      .st242 {
        fill: #fdfff7;
      }

      .st243 {
        fill: #81e934;
      }

      .st244 {
        fill: #93b5d3;
      }

      .st245 {
        fill: #4296ca;
      }

      .st246 {
        fill: #fefefe;
      }

      .st247 {
        fill: #6ac9e5;
      }

      .st248 {
        fill: #9eaecd;
      }

      .st249 {
        fill: #4eebfd;
      }

      .st250 {
        fill: #fcfefc;
      }

      .st251 {
        fill: #63d458;
      }

      .st252 {
        fill: #f1faed;
      }

      .st253 {
        fill: #afd5e9;
      }

      .st254 {
        fill: #0a8fd5;
      }

      .st255 {
        fill: #021c5e;
      }

      .st256 {
        fill: #5abb75;
      }

      .st257 {
        fill: #81a6bc;
      }

      .st258 {
        fill: #5a8fca;
      }

      .st259 {
        fill: #1e9559;
      }

      .st260 {
        fill: #81ecef;
      }

      .st261 {
        fill: #e2fd61;
      }

      .st262 {
        fill: #010e4f;
      }

      .st263 {
        fill: #0697df;
      }

      .st264 {
        fill: #2eceee;
      }

      .st265 {
        fill: #0047b6;
      }

      .st266 {
        fill: #0f7bca;
      }

      .st267 {
        fill: #0a9ee1;
      }

      .st268 {
        fill: #1dade8;
      }

      .st269 {
        fill: url(#linear-gradient);
      }

      .st270 {
        fill: #f7ffff;
      }

      .st271 {
        fill: #0c5db5;
      }

      .st272 {
        fill: #064d9d;
      }

      .st273 {
        fill: #041f60;
      }

      .st274 {
        fill: #63bfeb;
      }

      .st275 {
        fill: #fffffe;
      }

      .st276 {
        fill: #0fd7bf;
      }

      .st277 {
        fill: #7edaf4;
      }

      .st278 {
        fill: #f7fbfb;
      }

      .st279 {
        fill: #feffff;
      }

      .st280 {
        fill: #031c67;
      }

      .st281 {
        fill: #fdfefe;
      }

      .st282 {
        fill: #fcfdfd;
      }

      .st283 {
        fill: #01319c;
      }

      .st284 {
        fill: #182872;
      }

      .st285 {
        fill: #1fb5fb;
      }

      .st286 {
        fill: #0a97df;
      }

      .st287 {
        fill: #a9e8fb;
      }

      .st288 {
        fill: #fdfdfd;
      }

      .st289 {
        fill: #68ed3a;
      }

      .st290 {
        fill: #022a8f;
      }

      .st291 {
        fill: #078dde;
      }

      .st292 {
        fill: #0997db;
      }

      .st293 {
        fill: #88f42b;
      }

      .st294 {
        fill: #0989d3;
      }

      .st295 {
        fill: #76ca3a;
      }

      .st296 {
        fill: #005ec0;
      }
    </style>
    <linearGradient id="linear-gradient" x1="302.31" y1="208.71" x2="310.99" y2="249.75" gradientUnits="userSpaceOnUse">
      <stop offset="0" stop-color="#19d6f3"/>
      <stop offset="1" stop-color="#08c1ef"/>
    </linearGradient>
  </defs>
  <g id="Generative_Object">
    <rect class="st60" x="67.1" y="58.1" width="380.12" height="380.12"/>
    <path class="st176" d="M354.41,127.52c-4.48,5.33-10.18,14.06-14.48,19.86-1.18,1.6-8.65,9.18-7.24,10.95,1.9.22,2.01.72,3.53-.37.25-.18.76-.29.74-.74,1.77-1.17,1.77-2.85,2.41-3.34.87-.66,4.46-1.74,5.57-2.6l.93.93c-1.4.66-2.12,2.66-2.97,3.53-2.07,2.11-5.04,3.17-7.05,5.38-.04.04.73.67.37,1.11-.69.86-3.25,1.85-3.71,4.08.86-.19,2.63,1.32,2.78,1.3,1.19-.14,7.57-3.31,9.09-4.08v.74c-2.28,1.37-4.54,2.77-6.87,4.08-.94.53-4.14.25-3.16,3.16,1.31,3.88,5.04-2.64,5.38-2.78.08-.03.63.75.74.74,6.15-.23,8.05,4.47,5.75,9.84,1.34.51,2.44-.39,3.9-.19.42.06.59,1.08.74,1.11.54.12,1.96-1.36,2.41,0-5.05,8.6-3.16,8.33-13.55,11.14-1.58.43-7.45.8-8.17,1.11-.53.23-3.09,8.55-4.08,9.65-1.12-4.5-3.52-1.26-6.12-3.53l15.41-21.72-21.9,21.9-7.24-.19,3.9-7.24c-1.47,1.87-4.92,7.05-7.05,7.8-7.6,2.65-20.52,3.26-29.14,5.94-.17-1.28,4.71-6.05,3.53-6.68-.59.26-4.2,4.65-4.45,4.45-1.22-.93.98-3.31,1.67-4.08.34-.38,1.06-.79,1.48-1.11.8-.62,1.78-1.01,2.41-1.86l-.37,1.86,36.19-31c.98-1.93,3.31-3.85,2.78-6.12-1.99-1.39-14.73,9.97-16.89,11.88-1.03-2.04-4.37-2.18-2.23-3.16l-2.6-4.83c6.19,4.58,3.58-.04,3.9-.19.53-.24,1.13,1,1.48,1.11.09.03.78-1.37,1.3-.19.05.11-1.43,2.41.56,1.3.58-.32-1.36-3.06,2.23-1.86-3.84,3.13,7.25-1.56,1.3-2.78,3.05-1.86-.42-2.39-.37-2.6.1-.44,2.05.63,2.23-1.86.1-1.36-1.67.1,0-2.97.07,1.66-2.22-.59-2.23-.74,0-.12,1.65-.67,1.3-2.04,1.84,1.22,1.2,8.04,3.9,5.38-1.82-3,.44-.36,2.23.56-1.12-.37-.65.87-.19,1.48.7-.29.58-1.35.19-1.48,2.68,1.38,1.57.42,4.45-1.11,1.85-.99,3.71-1.98,5.57-2.97.14-.07.6.07.74,0,.1-.05.27.05.37,0,1.06-.55.7-.71.74-.74.4-.25.34-.35.37-.37.08-.07.29.22.74-.37.2-.26.27.04.37-.74.53-.17.87-.64,1.11-1.11.07-.14-.07-.56,0-.74.39-1.02.59-2.24.74-2.6.75-1.73,2.22-3.99,3.71-5.2,2.17-1.76,5.16-3.18,7.61-1.11,3.01-4.95,9.15-9.11,12.44-13.36l.74.37Z"/>
    <path class="st162" d="M268.11,111.55c5.95-1.46,7.12,7.12,2.6,8.17-6.04,1.4-6.7-7.16-2.6-8.17Z"/>
    <path class="st50" d="M180.32,178.37c.13-1.34,3.43-4.77,4.45-5.94,7.91,3.31,1.28,12.98-4.45,7.61.04-.55-.05-1.13,0-1.67Z"/>
    <path class="st56" d="M161.02,191.36c-.1,1.19-.1,2.09,1.11,2.6-.52.8-1.2,2.72-1.48,3.71-2.49-.37-4.58-1.38-7.42-1.48-.34-5.86,2.61-8.17,7.8-4.83Z"/>
    <path class="st152" d="M343.83,122.69c6.26-.94,5.29,9.13-.74,7.8-3.7-.82-2.99-7.23.74-7.8Z"/>
    <path class="st160" d="M188.67,349.13c6.84-2.01,6.76,8.74.37,7.42-3.16-.65-3.15-6.61-.37-7.42Z"/>
    <path class="st162" d="M209.09,350.61c5.62-1.6,6.41,6.19,2.23,7.05-4.87,1-5.46-6.14-2.23-7.05Z"/>
    <path class="st204" d="M354.41,127.52l-.74-.37c1.68-2.17,5.52-12.13,8.72-11.14,3.18,4.28-5.68,8.77-7.98,11.51Z"/>
    <path class="st69" d="M187.74,169.46c.33-1.29.77-.99,1.11-1.48,3.22-1.46,6.32,1.49,4.83,4.64-1.59,3.35-7.08,1.23-5.94-3.16Z"/>
    <path class="st221" d="M164.54,155.36c1.02-.2,2.07.17,2.78.93-1.16,6.11,3.95,8.46,6.12,13.92-2.34-2.1-4.04-5.84-6.12-7.98-1.39-1.42-3.88-1.76-4.45-2.97-.7-1.47.19-3.6,1.67-3.9Z"/>
    <path class="st291" d="M321.01,307.18c-.89.81,1.9,2.65,2.23,1.11.11.04.27-.04.37,0,.28,3.93-1.96,1.07-2.78,1.11s.05,1.39-.37,1.48c-.7.16-.67-1.75-2.41-.37-.71.47-3.13-.06-3.34,0l2.04-5.2c1.28.94,2.82,1.31,4.27,1.86Z"/>
    <path class="st114" d="M175.86,183.94c-.44.66-1.08,1.2-1.48,1.86l-4.83-16.52,6.31,14.66Z"/>
    <path class="st172" d="M221.34,311.63c-1.02,2,3.92-1.32,4.27,1.67.4,3.44-7.7,3.95-4.27-1.67Z"/>
    <path class="st158" d="M332.14,330.94c4.41,4.26,9.26,8.29,12.81,13.36-4.76-3.96-8.6-8.87-12.81-13.36Z"/>
    <path class="st142" d="M330.1,123.43c2.98-.86,3.18,3.91.74,4.08-2.23.16-2.52-3.57-.74-4.08Z"/>
    <path class="st96" d="M363.14,183.94c2.5-.85,3.25,2.74,1.48,3.34-2.5.85-3.25-2.74-1.48-3.34Z"/>
    <path class="st59" d="M353.49,199.9c2.46-.92,3.26,2.81,1.48,3.34-2.32.7-3.09-2.74-1.48-3.34Z"/>
    <path class="st137" d="M330.47,290.48c3.05-.1.96,3.72,0,3.71s-3.42-3.61,0-3.71Z"/>
    <path class="st178" d="M245.09,113.78c2.2-.67,2.75,2.84,1.11,3.34-2.2.67-2.75-2.84-1.11-3.34Z"/>
    <path class="st130" d="M159.34,180.97c2.05-.38,2.29,3.22.37,3.34-1.66.11-2.18-3.01-.37-3.34Z"/>
    <path class="st21" d="M230.62,334.65c1.76-.1,1.99,2.54.74,2.97-2.15.74-2.85-2.85-.74-2.97Z"/>
    <path class="st212" d="M201.85,335.76h-.37c1.09-3.27,3.08-7.03,4.83-10.02.17.15.78-.89.74.19-2.38,2.92-3.43,6.58-5.2,9.84Z"/>
    <path class="st25" d="M178.65,175.4c1.75,0,1.33,2.73.37,2.97-1.73.43-2.41-2.96-.37-2.97Z"/>
    <path class="st186" d="M318.04,310.52c-2.15,1.7-.91,2.15-4.08,1.48-.02-.05-.73-.25-.37-.93.52,0,1.05-.54,1.11-.56.21-.06,2.63.47,3.34,0Z"/>
    <path class="st110" d="M218.37,317.57c1.9-.84,2.15,2.51,1.86,2.6-.93.28-3.69-1.78-1.86-2.6Z"/>
    <path class="st30" d="M324.72,291.59c.05-.09.12-.56.37-1.11,2.74.72,2.99,1.26.93,3.34l-1.3-2.23Z"/>
    <path class="st27" d="M162.13,193.96c-1.21-.51-1.22-1.41-1.11-2.6.69.45,1.88.31,2.6,2.04-.29.73-1.44.49-1.48.56Z"/>
    <path class="st205" d="M328.62,299.01c1.06.05,1.38,2.17.37,2.6-1.7.73-2.08-2.67-.37-2.6Z"/>
    <path class="st241" d="M170.11,184.68c1.4.87,1.71,1.26,2.23,2.97-1.09-1.26-4.84-1.41-2.23-2.97Z"/>
    <path class="st153" d="M169.37,310.89c1.27-.91,2.83,1.21,1.48,1.86s-2.27-1.3-1.48-1.86Z"/>
    <path class="st89" d="M268.11,122.69l.74,6.68c-1.26-1.67-.46-4.47-.74-6.68Z"/>
    <path class="st76" d="M374.27,181.71c1.68-.65,1.45,2.18.37,2.23-.88.04-1.44-1.81-.37-2.23Z"/>
    <path class="st177" d="M184.59,323.51c.93.86-1.76,3-2.23,3.71l2.23-3.71Z"/>
    <path class="st42" d="M203.89,150.16v3.71c-.32-1.29-1.44-2.84,0-3.71Z"/>
    <path class="st33" d="M301.89,333.16c.58-.3,2.74,1.29.74,2.23-.67.13-.85-2.17-.74-2.23Z"/>
    <polygon class="st268" points="303.74 335.39 302.26 337.62 301.89 336.51 303.74 335.39"/>
    <path class="st262" d="M207.23,338.73c.88-.7,2.01,1.55.74,1.86-.85.2-1.29-1.42-.74-1.86Z"/>
    <path class="st67" d="M185.7,167.61c.85-.2,1.29,1.42.74,1.86-.88.7-2.01-1.55-.74-1.86Z"/>
    <path class="st40" d="M132.25,183.94c1.2-.25,1.19,1.13.74,1.48-.78.61-1.95-1.23-.74-1.48Z"/>
    <path class="st283" d="M331.96,317.2c1.34,0,.59,2.43-.74,1.48-.72-.51.35-1.48.74-1.48Z"/>
    <path class="st3" d="M124.08,260.41c.73-.17,1.31,1.11.74,1.48-1.18.78-1.88-1.21-.74-1.48Z"/>
    <path class="st84" d="M200.73,326.85c.89-.68,2.16-1.86,3.34-.93-.82.5-2.41.62-3.34.93Z"/>
    <path class="st20" d="M292.61,120.83c.63-.14,2.34,1.83,1.48,2.23-.59-.56-1.32-1.4-1.48-2.23Z"/>
    <path class="st200" d="M165.66,307.92c1.1.37.03,2.36-1.3.93.51-.01,1.22-.95,1.3-.93Z"/>
    <path class="st277" d="M318.22,313.49c.2-.09,1.23-.06,1.3.19-2.03,2.08-2.58.37-1.3-.19Z"/>
    <path class="st296" d="M327.87,316.09c.06-.04,1.27.49,1.3.56.73,1.53-2.75.29-1.3-.56Z"/>
    <path class="st228" d="M298.18,336.51c1.05-.3.82,1.4.37,1.48-.4.08-1.55-1.15-.37-1.48Z"/>
    <path class="st234" d="M323.79,316.83c.36.02.89,1.2.37,1.48-.8.45-1.23-1.52-.37-1.48Z"/>
    <path class="st271" d="M171.78,182.45c-.88,1.34-2.83-.12-.74-.74l.74.74Z"/>
    <path class="st88" d="M304.86,332.05c1.37-.26,1,.94.37,1.11-.76.21-1.17-.96-.37-1.11Z"/>
    <path class="st171" d="M206.3,325.74c-.22-.2-1.12-.43-1.11-.56l2.04-.56c-.86.51-.57.5-.93,1.11Z"/>
    <path class="st290" d="M171.78,182.45l-.74-.74c1.12-.33,1.3-.11.74.74Z"/>
    <path class="st211" d="M166.03,188.39c.5-.22,1.32.85.74,1.11-.5.22-1.32-.86-.74-1.11Z"/>
    <path class="st61" d="M169.55,192.11c-.49-.32-.92-.71-1.48-.93,1.99-.84,1.28.68,1.48.93Z"/>
    <path class="st222" d="M142.27,192.48c.19,0,.9.88.37,1.11-1.23.54-1.01-1.09-.37-1.11Z"/>
    <path class="st109" d="M201.48,335.76h.37c-.16.3.28,1.5-.93,1.48-.31-.14.44-1.13.56-1.48Z"/>
    <path class="st193" d="M280.73,338.36c.72-.38,1.14,1.16.37,1.11-.82-.05-.72-.93-.37-1.11Z"/>
    <path class="st258" d="M328.06,288.62s.44-.05.37.37c-1.07.56-1.38-.26-.93-1.11.14.47.35.52.56.74Z"/>
    <path class="st190" d="M347.92,149.05c1.62.01-.93,1.88-.93.56,0-.05.87-.56.93-.56Z"/>
    <path class="st23" d="M180.87,328.34c1.06-.14.02,1.06-.74,1.11-.32-.27.68-1.1.74-1.11Z"/>
    <path class="st146" d="M269.22,131.23c.26,0,.32,1.87,0,2.23-.29,0-.29-2.23,0-2.23Z"/>
    <path class="st51" d="M172.34,335.39c1.56-.49.58,1.22-.37.74-.36-.18.24-.7.37-.74Z"/>
    <path class="st77" d="M323.79,141.99c.31-.18.93.48.93.56-.07.86-2.1.12-.93-.56Z"/>
    <path class="st78" d="M219.67,312.38c.15-.35.19-1.13.56-1.48.38.72.39,1.7-.56,1.48Z"/>
    <path class="st274" d="M321.93,303.47c.84-.25.33,1.11-.37,1.11-.48-.33.1-1.03.37-1.11Z"/>
    <path class="st134" d="M277.39,134.57c.75-.15.73.94.37,1.11-.15.07-.93-1-.37-1.11Z"/>
    <path class="st253" d="M298.18,123.43c.29,0,.29,1.86,0,1.86-.32-.3-.26-1.85,0-1.86Z"/>
    <path class="st115" d="M328.43,288.99c.07-.42-.35-.35-.37-.37.43-1.26,1.77-.36.37.37Z"/>
    <path class="st265" d="M277.39,327.6c.88.11.23,1.66-.37.74-.24-.37.33-.75.37-.74Z"/>
    <path class="st2" d="M320.45,327.97c1-.22,1.44.64.37.74-.04,0-.75-.55-.37-.74Z"/>
    <path class="st168" d="M325.27,312.75c.58-.19,1.3.95.74,1.11-.07.02-1.06-.85-.74-1.11Z"/>
    <path class="st8" d="M324.9,310.89l1.3.56c-.07.38-2.13.37-1.3-.56Z"/>
    <path class="st199" d="M151.18,188.02c.48.02.87.38,1.3.56-.15.48-1.66.14-1.3-.56Z"/>
    <path class="st287" d="M324.16,319.8c.92-.09.07,1.1,0,1.11-.38.07-.71-1.04,0-1.11Z"/>
    <path class="st107" d="M209.46,144.22c.88.11.23,1.66-.37.74-.24-.37.33-.75.37-.74Z"/>
    <path class="st214" d="M166.4,182.45c.56-.2.82.55.37.74-.54.24-.82-.58-.37-.74Z"/>
    <path class="st118" d="M170.85,180.23c.96-.51,1.07.66.37.74-.04,0-.75-.54-.37-.74Z"/>
    <path class="st244" d="M210.94,325.37c.24-.03.89,1.05.37,1.11-.24.03-.89-1.05-.37-1.11Z"/>
    <path class="st245" d="M326.76,303.1c.46.68.15,1.53-.37.74-.26-.4.14-.45.37-.74Z"/>
    <path class="st85" d="M317.48,327.97c.46.68.15,1.53-.37.74-.26-.4.14-.45.37-.74Z"/>
    <path class="st113" d="M321.19,311.63c.34.45.41,1.14-.37,1.11-.32,0,.27-.87.37-1.11Z"/>
    <path class="st126" d="M163.98,313.12v-.37c.39,0,.86-.13,1.11.19-.65.91-.64.22-1.11.19Z"/>
    <path class="st68" d="M336.97,157.21c.02.45-.5.57-.74.74-.83-1.2.4-.52.74-.74Z"/>
    <path class="st120" d="M302.26,331.68s.75.54.37.74c-.96.51-1.07-.66-.37-.74Z"/>
    <path class="st149" d="M219.29,314.98c.03.05.9-.03,1.11.56l-1.11-.56Z"/>
    <path class="st218" d="M322.68,332.79c.46.68.15,1.53-.37.74-.26-.4.14-.45.37-.74Z"/>
    <path class="st72" d="M321.19,317.2c.56-.2.82.55.37.74-.54.24-.82-.58-.37-.74Z"/>
    <path class="st219" d="M287.78,129.37c.46.68.15,1.53-.37.74-.26-.4.14-.45.37-.74Z"/>
    <path class="st161" d="M290.01,137.17c.56-.2.82.55.37.74-.54.24-.82-.58-.37-.74Z"/>
    <path class="st266" d="M313.4,335.39c.56-.2.82.55.37.74-.54.24-.82-.58-.37-.74Z"/>
    <polygon class="st284" points="322.12 145.33 321.75 145.7 321.01 145.7 322.12 145.33"/>
    <path class="st58" d="M164.54,190.99c.63-.04.97-.14.93.56-.01.24-1.31-.22-.93-.56Z"/>
    <path class="st71" d="M322.68,318.69h.37c.73-.06.73.43,0,.37l-.37-.37Z"/>
    <polygon class="st82" points="324.16 305.7 324.72 305.88 324.16 306.44 323.98 306.25 324.16 305.7"/>
    <polygon class="st257" points="217.62 320.17 217.81 320.73 217.25 320.91 217.07 320.73 217.62 320.17"/>
    <polygon class="st141" points="326.39 320.54 326.57 321.1 326.02 321.29 325.83 321.1 326.39 320.54"/>
    <polygon class="st154" points="334.93 320.54 335.48 320.73 334.93 321.29 334.74 321.1 334.93 320.54"/>
    <polygon class="st92" points="163.8 321.29 164.36 321.47 163.8 322.03 163.61 321.84 163.8 321.29"/>
    <polygon class="st75" points="151.92 186.54 152.48 186.72 152.29 187.28 152.11 187.09 151.92 186.54"/>
    <polygon class="st167" points="218.74 321.29 219.29 321.47 218.74 322.03 218.55 321.84 218.74 321.29"/>
    <path class="st64" d="M169.55,192.11s1.25-.13.56.74c-.3-.11-.52-.72-.56-.74Z"/>
    <polygon class="st15" points="163.8 195.08 164.17 195.45 164.17 195.82 163.8 195.82 163.8 195.08"/>
    <polygon class="st111" points="324.53 309.78 325.09 309.96 324.53 310.52 324.35 310.34 324.53 309.78"/>
    <polygon class="st127" points="279.62 325.74 279.99 326.11 279.99 326.48 279.62 326.48 279.62 325.74"/>
    <polygon class="st86" points="189.78 164.64 189.97 165.19 189.41 165.38 189.23 165.19 189.78 164.64"/>
    <polygon class="st70" points="315.99 326.11 316.55 326.3 315.99 326.85 315.81 326.67 315.99 326.11"/>
    <polygon class="st99" points="215.77 326.48 216.33 326.67 215.77 327.23 215.58 327.04 215.77 326.48"/>
    <path class="st104" d="M200.73,326.85s-.32.98-.74.56c-.15-.8.62-.46.74-.56Z"/>
    <path class="st136" d="M163.98,312.75v.37c-.38-.02-.73.85-.74-.19.18-.3.47-.19.74-.19Z"/>
    <path class="st232" d="M324.16,300.87c.18-.01.25.33.19.56-.21,1.38-.66-.53-.19-.56Z"/>
    <path class="st31" d="M313.4,332.05h.37c.73-.06.73.43,0,.37l-.37-.37Z"/>
    <path class="st213" d="M197.58,334.28c.18-.01.25.33.19.56-.21,1.38-.66-.53-.19-.56Z"/>
    <polygon class="st49" points="321.75 145.7 322.12 145.33 321.93 146.45 321.75 145.7"/>
    <polygon class="st132" points="337.15 155.36 337.34 155.91 336.78 156.1 336.6 155.91 337.15 155.36"/>
    <polygon class="st163" points="321.19 142.36 321.75 142.55 321.56 143.11 321.38 142.92 321.19 142.36"/>
    <polygon class="st235" points="189.78 154.98 190.34 155.17 190.15 155.73 189.97 155.54 189.78 154.98"/>
    <polygon class="st26" points="310.43 352.47 310.61 353.02 310.06 353.21 309.87 353.02 310.43 352.47"/>
    <path class="st182" d="M274.98,198.42c-.03.55-.5.14-.74.74l-39.53,3.71c-1.45.64.51,11.36.56,13.18.32,11.42-.97,22.79-1.86,34.15l-.37-11.32c.35-4.96,1.88-10.31,1.86-15.03-.04-7.4-2.9-15.87-3.9-23.2,6.54-.22,13.16-.25,19.67-.74,5.42-.41,19.94-2.86,24.31-1.48Z"/>
    <path class="st279" d="M314.32,204.36c1.27.17,7.98.98,6.87,2.97-4.59-3.82-33.28-1.37-34.71,3.16-.8,2.51.53,9.65-.74,12.81-.43,0-.47.74-1.11-.19l-.74-15.96c.43-.73.92-.69,1.48-.93,6.54-2.75,21.84-2.79,28.95-1.86Z"/>
    <path class="st192" d="M260.5,273.77c-.54.03-.31-.8-.56-.74-.45.11-4.03,6.89-6.68,5.57l-5.38,4.83c-1.71.29-3.46.82-5.2,1.11l-1.48-2.41c1.95-1.33,4.56-.49,6.5-1.3,1.64-.68,10.69-11.32,11.32-13.36.02-.06.68-.35.37-1.11.36.03.64-.76,1.11-.19v7.61Z"/>
    <path class="st264" d="M309.87,201.39s.13.7-.19.74c-1.5.19-4.9-.65-5.57,1.11h10.21v1.11c-7.11-.94-22.41-.89-28.95,1.86h-3.34v-.37c9.19-2.32,18.29-4.57,27.84-4.45Z"/>
    <path class="st106" d="M323.98,203.24h-19.86c.67-1.77,4.07-.93,5.57-1.11.31-.04.15-.74.19-.74,1.7-.14,14.02.36,14.48.93-.42.28-.37.49-.37.93Z"/>
    <path class="st47" d="M276.09,198.79c-.69.78-2.89,3.15-1.67,4.08.25.19,3.86-4.2,4.45-4.45,1.18.63-3.7,5.4-3.53,6.68-2.09.65-4.69,1.66-6.68,2.6,2.09-3.33,4.07-4.86,5.57-8.54.24-.6.71-.19.74-.74.41.13.59.51,1.11.37Z"/>
    <path class="st215" d="M304.3,258.18c-.06.98.39,2.76.37,2.97-.32,4.79-.29,15.27-1.48,19.3-.38-.35-.74-.75-1.11-1.11.06-.85-.09-1.75,0-2.6.66-6.21.94-12.36,1.48-18.56h.74Z"/>
    <path class="st236" d="M326.94,152.39s.02.12-.37.37h-.37l-.74.74c-.14.07-.6-.07-.74,0-.78-1.8.81-.94,2.23-1.11Z"/>
    <path class="st10" d="M328.06,151.27c-.1.79-.17.48-.37.74-1.83-.2.06-1.1.37-1.48-.01.24.03.5,0,.74Z"/>
    <path class="st38" d="M314.7,157.58c.39.13.52,1.2-.19,1.48-.46-.62-.93-1.86.19-1.48Z"/>
    <path class="st220" d="M329.17,150.16c-.24.47-.58.95-1.11,1.11.03-.24-.01-.5,0-.74.05-.06-.16-.25.37-.74l.74.37Z"/>
    <path class="st252" d="M325.83,153.5l.37-.74h.37s.31.19-.74.74Z"/>
    <path class="st191" d="M326.2,152.76l-.37.74c-.1.05-.27-.05-.37,0l.74-.74Z"/>
    <path class="st11" d="M329.17,150.16l-.74-.37c.07-.07.57-.33.74-.37-.07.18.07.61,0,.74Z"/>
    <g>
      <path class="st7" d="M293.17,332.42c-1.28-.68-3.72,1.69-3.16,2.6-.45-.58-4.71-1.26-4.83-1.48-.36-.71.5-1.23.19-1.67-1.32-1.9-2.22-.24-2.6-4.08-.03-.29-.73-.09-.74-.37,0-.23,2.64-1.84-.19-3.53-1.53-.91-2.14,1.01-3.16-.19,1.38-.04.9-.98.74-2.04,1.75-2.61,3.3-7.1,6.31-7.61-2.58-.29,1.86-4.35,2.41-5.75,1.2,1.55-.58,3.33-.56,3.53.04.38,2.24,4.56,2.23,4.83-.02.48-1.34-.52-1.48.37-.2,1.17,3.22,3.2,3.9.19,2.35-.22.94,13.65.93,15.22Z"/>
      <path class="st6" d="M286.67,314.98c1.25-.34.74,2.02-.37,1.48-.44-.21.3-1.46.37-1.48Z"/>
    </g>
    <g>
      <path class="st286" d="M305.79,329.45c-2.19,3.33-2.21,1.07-2.41,1.11-.62.12-2.14,1.67-2.6.37l-5.01,2.97c.04-2.53-1.51-14.47,1.67-15.22.83-.2,6.07.22,5.2,2.23.35-1.92.9-2.67,3.16-2.41-.61,3.59-.24,7.19,0,10.95Z"/>
      <path class="st14" d="M298.18,319.8c1.1-.05.39,1.49,0,1.48-.62,0-.67-1.45,0-1.48Z"/>
      <path class="st195" d="M300.77,323.14c.49.03-.25,1.31-.37,1.48-.53-.2.03-1.51.37-1.48Z"/>
    </g>
    <g>
      <path class="st29" d="M316.55,316.46c.05.09-1.33.99.74,1.3-2.25,1.48-.62,2.21-.37,3.9-.01-.04-.64-.47-.74-.19.03,1.01,1.09,1.17.74.19.08.52-.04,2.96-.19,2.97-.21.01-.71-1.76-2.23-1.11-.9,1.93,1.36,1.96-2.04,2.23.19-.41-.78-.35-.74-.56.02-.13,1.54-.26,1.11-1.86-.73-2.77-2.33,1.36-2.6,2.23.78,1.09,1.34.26,2.23.19-.69,1.46-3.1,4.37-4.83,3.71-.17-1.3-.43-11.64,0-12.44.14-.27,4.34-3.88,4.64-3.9.6-.03,3.81,2.53,4.27,3.34Z"/>
      <path class="st133" d="M312.47,325.74c-.88.07-1.45.9-2.23-.19.27-.86,1.87-4.99,2.6-2.23.42,1.6-1.09,1.73-1.11,1.86-.04.2.94.14.74.56Z"/>
      <path class="st16" d="M310.43,316.46c.46.68.15,1.53-.37.74-.26-.4.14-.45.37-.74Z"/>
      <path class="st60" d="M316.92,321.66c.34.98-.71.82-.74-.19.11-.28.73.15.74.19Z"/>
    </g>
    <g>
      <path class="st66" d="M282.03,206.58c.24,1.24,1.04,10.03.74,10.58s-5.87.92-6.31,1.86c-.41.85-.91,13.04-.74,14.66.06.55-1.03.24-.56.74l12.44-1.48c-.1,3.52-1.46,6.99-1.11,10.58-.53,1.32-10.07,1.95-11.88,2.97l-1.11,18.56,16.89-2.78-.56,14.29c-13.83,3.12-27.99,4.53-41.95,6.87l5.38-4.83c2.65,1.32,6.23-5.46,6.68-5.57.25-.06.02.77.56.74.44-.03.84.14.74-.56.6-16.03,1.49-32.05,2.23-48.07l.37,15.41,1.11-27.47c.67-2.11,14.46-5.93,17.08-6.5Z"/>
      <path class="st250" d="M282.03,205.84v.37c.02.12-.02.25,0,.37-2.62.57-16.41,4.38-17.08,6.5l-1.11,27.47-.37-15.41c.2-4.25-.14-8.55,0-12.81,5.47-3.97,12.19-4.89,18.56-6.5Z"/>
      <path class="st112" d="M287.6,232.94l-12.44,1.48c-.47-.5.61-.19.56-.74l11.69-1.86c1.1.75.19,1.06.19,1.11Z"/>
      <path class="st194" d="M272.56,249.64c.32.24.35,7.62.19,7.98-.4.9-3.33.38-4.64.93-2.53,1.05-5.3,7.37-5.94,10.02l3.16-14.29c3.29,1,5-2.93,7.24-4.64Z"/>
    </g>
    <g>
      <path class="st181" d="M274.23,199.16c-1.49,3.68-3.48,5.2-5.57,8.54-1.13.53-6.39,3.39-6.68,4.27-.37,1.12.45,4.95-.19,5.75-.52.65-12.51,1.16-14.29,2.04-.36,5.22-1.37,10.56-1.48,15.78,0,.05-.65.17-.37.93.54,1.03,11.32-1.26,13.18-1.67,0,1.5-.14,2.96-.19,4.45-.07,2.36-.35,4.7-.56,7.05l-13.18,3.16-1.48,19.49c-2.98-2.19-2.37-4.38-5.01-6.31l-7.24,6.31c.64-10.02,1.14-20.05,1.86-30.07l.37,11.32c.88-11.36,2.18-22.73,1.86-34.15-.05-1.82-2.01-12.53-.56-13.18l39.53-3.71Z"/>
      <path class="st19" d="M258.64,239.25c.04-1.5.19-2.96.19-4.45-1.86.41-12.64,2.7-13.18,1.67-.28-.76.37-.88.37-.93l13.92-1.86-1.3,5.57Z"/>
      <path class="st159" d="M240.64,209.92c.19-.02,1.96,1.38,2.04,1.67.99,3.29-3.82.27-1.67,3.53-2.79-.05-2.09-5.06-.37-5.2Z"/>
      <path class="st295" d="M256.23,240.73h.37c.73-.06.73.43,0,.37l-.37-.37Z"/>
      <polygon class="st44" points="254.75 243.33 255.3 243.52 255.12 244.07 254.93 243.89 254.75 243.33"/>
    </g>
    <path class="st24" d="M294.28,275.26c-.11-3.63.18-7.16.37-10.77.28-5.32.85-10.64,1.11-15.96.81,4.38.17,8.93,1.48,13.18.06.21,2.3,1.49,1.48,2.97-.43.77-1.57.39-1.86,1.11-.35.91,1.04,2.48,0,3.71-.57.67-4.74-.69-.37,4.83l-2.23.93Z"/>
    <g>
      <path class="st269" d="M323.98,203.24c-.01,4.69-2.05,10.79-1.48,15.78l-13.36.74-4.45,41.39c.01-.21-.43-1.99-.37-2.97.44-6.97,1.53-13.83,2.04-20.79-1.02-.25-2.65,19.24-2.78,20.79-.55,6.21-.82,12.35-1.48,18.56-2.21,2.72-.55,2.07,0,2.6.38.36.73.77,1.11,1.11-.79,2.66-2.79,1.69-5.57,2.23-.35-.76-1.33-1.13,0-1.11l.74-.19c-.13-.32-.74-.15-.74-.19.06-1.29,1.37-1.94,1.48-2.78.02-.12-.28-.96-.37-2.04-.03-.36.55-.5.37-.93l-.56-.56c-.65.54-.55.48-.19,1.11-2.23-2.46-3.31,2.06-4.27,1.48-.43-.76.21-1.29.19-2.23l2.23-.93c-4.37-5.52-.2-4.15.37-4.83,1.04-1.23-.35-2.8,0-3.71.28-.73,1.43-.34,1.86-1.11.82-1.48-1.42-2.76-1.48-2.97-1.32-4.25-.68-8.8-1.48-13.18.07-1.49.3-3.01.37-4.45l.74-23.39c-.12,0-.25,0-.37,0-3.03-.06-8.16,2.6-10.77,2.6,1.27-3.15-.05-10.29.74-12.81,1.43-4.52,30.12-6.98,34.71-3.16,1.11-1.99-5.59-2.8-6.87-2.97v-1.11h9.65Z"/>
      <path class="st166" d="M296.13,244.07c.37-7.65-.09-15.66.74-23.39l-.74,23.39Z"/>
      <path class="st62" d="M304.3,258.18h-.74c.14-1.55,1.76-21.04,2.78-20.79-.51,6.96-1.6,13.81-2.04,20.79Z"/>
      <path class="st156" d="M299.29,269.32c.34,0,1.53,1.48.37,1.86-1.72.56-1.26-1.86-.37-1.86Z"/>
      <path class="st233" d="M302.07,279.34c-.55-.53-2.21.12,0-2.6-.09.84.06,1.75,0,2.6Z"/>
      <path class="st198" d="M301.89,255.95c1.93-.67.14,1.76-.37,1.48s-.1-1.32.37-1.48Z"/>
    </g>
    <g>
      <path class="st43" d="M243.42,268.95c.2.15-.62.52-.19.74l15.78-2.23c-.63,2.04-9.68,12.68-11.32,13.36-1.94.81-4.55-.03-6.5,1.3l1.48,2.41c-4.28.73-8.56,1.68-12.81,2.6l.74-3.71-9.65,7.8-3.53-7.98c3.8-3.9,4.2-9.57,5.94-14.48.58-.69.55-.63,1.11,0,1.76,1.97,3.68,10.26,5.75,12.81.23-4.2.66-8.43.93-12.62l7.24-6.31c2.64,1.93,2.03,4.12,5.01,6.31Z"/>
      <path class="st231" d="M224.31,282.31c1.08-.01.82,2.15-.37,1.86-1.1-.27-.06-1.85.37-1.86Z"/>
      <path class="st259" d="M220.59,283.05c.56-.2.82.55.37.74-.54.24-.82-.58-.37-.74Z"/>
      <path class="st280" d="M222.08,285.65c.56-.2.82.55.37.74-.54.24-.82-.58-.37-.74Z"/>
    </g>
    <g>
      <path class="st83" d="M353.3,180.23c-.45-1.36-1.87.12-2.41,0-.16-.03-.33-1.06-.74-1.11-1.46-.2-2.55.69-3.9.19,2.3-5.37.39-10.07-5.75-9.84-.11,0-.67-.78-.74-.74-.34.15-4.07,6.66-5.38,2.78-.98-2.9,2.22-2.62,3.16-3.16,2.32-1.32,4.58-2.72,6.87-4.08,2.65-1.59,4.45-3.07,6.68-4.45,1.96-1.21,12.18-8.21,12.99-4.27s-8.4,20.65-10.77,24.69Z"/>
      <path class="st276" d="M351.07,159.81c-2.23,1.38-4.03,2.87-6.68,4.45v-.74c2.26-1.15,4.31-2.78,6.68-3.71Z"/>
      <path class="st293" d="M350.89,172.43c2.32-.74,3.16,3.11.74,3.34s-1.99-2.94-.74-3.34Z"/>
      <path class="st243" d="M346.8,167.23c2.8-.79,1.4,2.94-.37,2.6-1.51-.29-.31-2.41.37-2.6Z"/>
      <path class="st37" d="M349.03,175.77c.18-.03,1.65.84,1.67.93.31,1.19-2.5,1.28-2.6,1.11-.33-.52.43-1.95.93-2.04Z"/>
      <path class="st185" d="M357.57,158.7c1.63-.2,1.17,1.33.74,1.48-.96.36-2.38-1.28-.74-1.48Z"/>
      <path class="st209" d="M346.06,165.38c.64-.28.79.93.37,1.11-.64.28-.79-.93-.37-1.11Z"/>
      <path class="st256" d="M344.95,168.72c.13.16.85,1.48.37,1.48-.33,0-.89-1.13-.37-1.48Z"/>
    </g>
    <g>
      <path class="st275" d="M277.57,197.67c7.4-8.84,15.47-17.58,24.13-25.24,2.16-1.91,14.9-13.27,16.89-11.88.52,2.27-1.8,4.19-2.78,6.12l-36.19,31,.37-1.86c-.63.85-1.61,1.23-2.41,1.86Z"/>
      <path class="st261" d="M291.12,185.05c.89-.12.16.84,0,1.11-.72,1.21-3.64,3.76-4.83,4.83-1.08-.59,4.4-5.31,4.83-5.94Z"/>
    </g>
    <g>
      <path class="st13" d="M294.65,264.49c-.19,3.61-.48,7.13-.37,10.77.03.93-.62,1.46-.19,2.23.95.58,2.04-3.95,4.27-1.48.06.1-.05.43.37.37.09,1.08.39,1.92.37,2.04-.12.84-1.43,1.5-1.48,2.78v.37c-1.33-.02-.35.35,0,1.11-.83.16-5.05,1.66-5.57.93.22-6.88,1.01-13.74,1.48-20.6l1.11,1.48Z"/>
      <path class="st144" d="M298.73,276.37c-.42.06-.31-.27-.37-.37-.36-.63-.46-.58.19-1.11l.56.56c.18.43-.4.57-.37.93Z"/>
      <path class="st52" d="M297.62,281.57v-.37s.61-.13.74.19l-.74.19Z"/>
      <path class="st12" d="M297.06,278.6c.68-.14.76.62.37,1.11-.1-.31-.62-.85-.37-1.11Z"/>
    </g>
    <g>
      <path class="st158" d="M321.01,145.7c.14.21-.32,1.5.56,1.86,1.55.63,10.97-9.23,12.62-8.91,1.76.35-.66,2.25-.56,2.97-1.49,1.21-2.96,3.46-3.71,5.2l-10.77,9.65c-2.88,1.53-1.78,2.49-4.45,1.11-1.79-.92-4.05-3.56-2.23-.56-2.7,2.66-2.05-4.16-3.9-5.38.35,1.37-1.3,1.92-1.3,2.04,0,.16,2.29,2.4,2.23.74-1.67,3.07.1,1.61,0,2.97-.18,2.49-2.12,1.41-2.23,1.86-.05.21,3.42.74.37,2.6,5.95,1.22-5.13,5.92-1.3,2.78-3.59-1.21-1.65,1.53-2.23,1.86-1.98,1.11-.51-1.19-.56-1.3-.52-1.19-1.21.22-1.3.19-.36-.12-.95-1.36-1.48-1.11-.32.15,2.29,4.76-3.9.19l2.6,4.83c-2.14.97,1.2,1.11,2.23,3.16-8.65,7.66-16.73,16.4-24.13,25.24-.42.33-1.15.73-1.48,1.11-.52.14-.71-.24-1.11-.37-4.38-1.38-18.9,1.07-24.31,1.48-6.52.49-13.14.53-19.67.74,1,7.33,3.86,15.8,3.9,23.2.02,4.73-1.5,10.08-1.86,15.03-.71,10.02-1.22,20.04-1.86,30.07-.27,4.19-.7,8.42-.93,12.62-2.07-2.55-3.99-10.84-5.75-12.81-.57-.63-.53-.69-1.11,0-1.74,4.91-2.14,10.58-5.94,14.48l3.53,7.98,9.65-7.8-.74,3.71c4.25-.92,8.53-1.86,12.81-2.6,1.74-.3,3.49-.83,5.2-1.11,13.96-2.34,28.12-3.74,41.95-6.87l.56-14.29-16.89,2.78,1.11-18.56c1.81-1.02,11.35-1.65,11.88-2.97-.34-3.59,1.01-7.06,1.11-10.58,0-.06.91-.36-.19-1.11l-11.69,1.86c-.16-1.63.34-13.81.74-14.66.44-.93,6.02-1.32,6.31-1.86s-.5-9.34-.74-10.58c-.02-.12.02-.25,0-.37h3.34c-.57.24-1.06.19-1.48.93l.74,15.96c.64.92.68.18,1.11.19,2.61,0,7.73-2.65,10.77-2.6-1.12,14.09-2,28.22-2.97,42.32-.47,6.86-1.26,13.72-1.48,20.6.52.74,4.73-.77,5.57-.93,2.78-.54,4.78.43,5.57-2.23,1.2-4.04,1.16-14.51,1.48-19.3l4.45-41.39,13.36-.74c-.57-4.99,1.47-11.08,1.48-15.78,0-.44-.05-.65.37-.93-.45-.57-12.78-1.07-14.48-.93-9.56-.11-18.65,2.14-27.84,4.45-6.37,1.61-13.09,2.53-18.56,6.5-.14,4.26.2,8.56,0,12.81-.74,16.02-1.62,32.05-2.23,48.07.09.7-.3.53-.74.56v-7.61c-.48-.58-.75.22-1.11.19-2.81-.23-15.38,3.16-15.96,2.6l1.48-19.49,13.18-3.16c.21-2.35.49-4.69.56-7.05l1.3-5.57-13.92,1.86c.11-5.22,1.12-10.56,1.48-15.78,1.78-.89,13.77-1.39,14.29-2.04.64-.8-.19-4.63.19-5.75.29-.88,5.55-3.74,6.68-4.27,1.99-.94,4.59-1.95,6.68-2.6,8.62-2.68,21.54-3.29,29.14-5.94,2.13-.74,5.59-5.93,7.05-7.8l-3.9,7.24,7.24.19,21.9-21.9-15.41,21.72c2.6,2.27,5-.97,6.12,3.53.99-1.1,3.56-9.42,4.08-9.65.71-.31,6.58-.69,8.17-1.11,10.39-2.81,8.5-2.54,13.55-11.14,2.37-4.03,11.56-20.82,10.77-24.69s-11.03,3.06-12.99,4.27c-2.37.93-4.42,2.56-6.68,3.71-1.53.78-7.9,3.94-9.09,4.08-.15.02-1.92-1.49-2.78-1.3.46-2.23,3.02-3.23,3.71-4.08.36-.44-.41-1.07-.37-1.11,2.02-2.21,4.98-3.27,7.05-5.38,6.86-3.77,29.91-19.58,28.95-1.3-.36,6.85-14.16,36.2-19.49,40.28-2.69,2.06-8.15,2.42-8.91,2.97-.99.72.46,7.54.93,8.35.11.2,3.67,2.42,3.9,2.41.54-.03,2.46-3.25,3.34-3.71,2.02-1.06,12.6-2.2,15.22-2.23,39.85-.41,45.72,36.11,17.63,58.09l18.93,36.38-10.95,14.66-.74-2.6c-3.43,2.41-6.27,5.91-6.87,10.21-.53,3.84,1.25,11.62.37,14.48-.4,1.29-2.46,1.74-2.97,0-.71-2.43.8-11.47.37-15.22-.91-8.05-4-19.02-6.68-27.1-1.89-5.68-4.44-11.26-6.5-16.89l-2.41,27.65c-3.52.39-4.5-2.24-5.2,2.6-.87,6.05,1.03,14.29.37,19.67-.3,2.48-2.66,3.35-3.34,1.11-.75-2.49,1.11-13.98.74-18.19-.92-10.51-5.42-7.44-13.92-9.84-2.21,2.42,2.27,14.9-1.86,14.85-3.13-.04-.3-12.25-.93-15.03-.34-1.52-4.48-5.27-5.2-7.42-.52-1.55-.42-4.57-.74-6.31-.32-.68-9.6,1.56-10.21,2.04-1.02.81-1.14,3.66-1.67,4.83-.25.55-.32,1.02-.37,1.11-1.47,2.69-5.24,2.66-3.16,4.08l15.03-1.67-19.67,8.54,37.49,20.79c-2.46-.19-5.12-2.47-7.24-3.16-.41-.13-1.4.75-1.48.74-1.09-.13-.72-1.81-1.86-2.6-4.28-2.98-15.13-7.85-20.23-10.02-.1-.04-.27.04-.37,0-.71-.3-1.45-.82-2.23-1.11-1.45-.55-2.99-.92-4.27-1.86l-2.04,5.2c-.06.02-.59.56-1.11.56-.36.68.35.88.37.93.51,1.21,15.74,16.32,18.19,18.93-5.08-4.9-10.36-9.73-15.59-14.48-.46-.81-3.67-3.37-4.27-3.34-.3.01-4.5,3.63-4.64,3.9-.43.8-.17,11.13,0,12.44s.27,2.23.74,3.53l12.81,24.69-12.81-23.94c-.92-1.05-.79,9.5-2.23,5.57-.44-1.2.5-6.24.37-8.17,0-.14-.74-1.58-.74-1.67-.24-3.76-.61-7.36,0-10.95-2.26-.25-2.81.49-3.16,2.41.88-2.01-4.37-2.42-5.2-2.23-3.18.75-1.63,12.69-1.67,15.22-.03,1.97.22,10.56,0,11.32-.52,1.76-2.56,1.28-2.97,0-.19-.61.36-10.73.37-12.81,0-1.57,1.43-15.44-.93-15.22-.68,3.01-4.09.98-3.9-.19.15-.89,1.46.11,1.48-.37.01-.27-2.18-4.45-2.23-4.83-.02-.2,1.76-1.98.56-3.53-.55,1.4-4.99,5.46-2.41,5.75-3.01.51-4.56,5-6.31,7.61-4.89,7.3-7.09,9.5-6.31,19.12.03.32,2.79,5.85-1.3,4.64-2.98-.89.51-4.72.56-5.01.14-.85.56-8.17.19-8.35-.58,2.01-4.68,6.47-5.01,7.98-.62,2.79-.03,11.39,0,14.85,0,.08.76,1.4.74,1.48-.09.5-1.41,1.43-1.86.37-.55-1.31,2.23-12.51.19-15.03-.77-.03-7.75,12.27-7.98,13.18-2.46,9.77,1.39,25.75-2.41,36.19-1.58-11.48-1.57-23.11-1.67-34.71-4.02-8.8-9.08-17.24-14.29-25.43-2.43,3.44.93,24.44-1.48,25.24-.62.21-1.26-.02-1.67-.56-.9-1.16.75-22.48-.74-27.47l-13.55-22.09c-.98,1.61-3.43,2.43-5.01,4.64l1.86,1.67c-.71,1.64-1.26,1.25-.37,2.6-2.36-.11-2.15-1.61-2.04-3.34-2.01,3.52-1.99,8.22-5.57,10.77-4.73,3.36-6.79.32-8.91.74s-17.02,17.58-20.23,19.86c-1.53,2.28.02,17.6-1.3,18-.58.18-.81-.47-.93-.93-.3-1.21.59-14.7-.56-14.66-3.1,5.01-13.05,10.84-13.92,16.52s2.27,16.46,1.11,20.79c-.62,2.34-3.83,2.44-4.45-.37-.91-4.07,3.43-18.98,1.11-22.64l-2.04.56-6.87,6.12,34.89-47.14-12.06,9.09c-.17,2.26-1.71,1.4-1.86,1.48-2.96,1.66-2.05,2.17-5.2.74-.3-.14-.88,1.41-1.67-1.86,0-.04.61.13.74-.19l-.56-.56c-.31.02-.14.71-.19.74-1.64,1.16-.32,1.12-1.3,2.23-.04.05-1.36-.58-1.3.19.01.16.74.6.74.74,0,7.19-3.12,6.47-7.05,10.77-4.73,5.16-9.07,10.72-14.11,15.59.83-2.47,11.62-16.41,11.51-17.45-.03-.25-2.77-2.18-2.97-4.08-.45-4.29,4.08-6.36,6.31-8.91.29-.33.28-1.27.93-2.04.03-.03.5.67.74.37,1.53-1.81,12.49-16.2,12.44-17.26-.19-3.56-9.62,3.5-10.02,2.23l5.57-2.97c-4.89-3.06-11.63.54-17.08,1.11,1.66-1.99,16.78-10.16,17.08-11.14.09-.29-1.37-5.72-1.67-5.75-2.36,2.8-5.22,5.99-8.17,8.17-2.49,1.84-10.5,5.3-11.69,6.87-3.6,4.7-1.26,13.03-2.78,18.37-2.2.22,2.25-23.38-9.28-18.56l-23.57,15.78c1.43-2.36,12.27-12.21,12.62-13.73.12-.53-.93-10.18-1.11-10.77-.25-.79-2.52-3.12-2.97-4.08-3.17-6.85-5.5-13.47-5.94-21.16l19.12-8.35c1.56.3,1.35,13.78,10.77,10.77,6.58-2.11,3.55-5.78.37-8.91-9.48-9.33-22.73-15.92-27.28-29.88-7.08-21.71,13.48-41.42,34.52-40.65,2.84.1,4.93,1.12,7.42,1.48,2.66.39,1.48-2.46,5.01-1.11,1.8-1.64-2-2.15.37-3.71,3.78,7.12,6.52-4.08,8.35-7.05.4-.65,1.05-1.2,1.48-1.86,1.28-1.92,2.92-3.83,4.45-5.57-.05.54.04,1.12,0,1.67,5.73,5.37,12.37-4.3,4.45-7.61.92-1.05,1.76-2.2,2.97-2.97-1.14,4.38,4.35,6.51,5.94,3.16,1.5-3.15-1.61-6.1-4.83-4.64,1.71-2.42,7.31-7.02,9.84-8.91,24.77-18.52,58.96-24.53,88.35-14.11l.74-13.36c.53,0,.09,9.55.19,10.58.08.87,1.09,1.39,1.11,1.48.02.1-1.61,1.09-.19,2.04,2.65-3.86,3.28-9.33,5.01-13.36.3,1.77,1.46-1.62,2.23-2.41,3.24-3.34,3.15-2.19,6.87-2.78.6-.1-.31-2.14,1.86.37l7.8-10.39c-.3,2.51-5.39,9.47-5.38,11.32,0,1.73,3.32,3.45,4.64,3.16,2.04-.46,20.84-22.65,24.5-25.24l-18.37,35.08c1.05,3.22,7.37-8.34,8.91-8.54-.84,2.2-7.37,9.44-7.42,11.14-.02.61,1.42,1.58,1.48,1.67Z"/>
      <path class="st273" d="M293.91,132.34c-.06-.34-.09-.88.19-1.11.68.54-.15,1.04-.19,1.11Z"/>
      <polygon class="st139" points="225.42 310.52 225.61 311.08 225.05 311.26 224.86 311.08 225.42 310.52"/>
      <path class="st91" d="M141.71,218.83c-3.66,1.49-5.07,5.76-4.45,9.47,1.71,10.27,27.17,16.35,29.7,37.31-2.68,1.15-5.07,3.44-7.05,5.57-.07.08-1.6.6-1.86,1.11-5.83-.68-3.4.42-6.31,3.16-7.61,7.16-15.96,5.19-19.67-4.45-.82-.54-9.24,3.6-10.77,4.45-.25.64.83,5.49,1.11,6.5l-1.48.74c-.39-1.18-2.15-7.68-1.86-8.35l13.92-6.5c3.12,19.01,28.39,7.9,16.89-6.87-10.45-13.42-39.66-20.28-24.13-45.84-5.65,12-2.78,22.39,7.42,30.44.44.45,1.03,2.13,2.23,1.67-.51-.78-1.6-1.18-2.23-1.67-12.95-13.18-12.29-28.51,4.45-37.86l4.08,11.14Z"/>
      <path class="st292" d="M166.95,265.6c.11.92.36,1.48.37,2.6.02,1.98-.26,4.59-.74,6.5-.9,3.56-4.18,7.04-4.08,10.21-7.87,10.94-21.79,17.36-33.78,8.91.46-2.37-3.24-4.94-4.45-7.24-.41-.77-1.62-3.81-1.86-4.64-.29-1-1.37-5.86-1.11-6.5,1.52-.85,9.95-5,10.77-4.45,3.71,9.65,12.07,11.61,19.67,4.45,2.91-2.74.48-3.84,6.31-3.16-3.47,6.97,10.32,3.1,1.86-1.11,1.98-2.13,4.38-4.41,7.05-5.57Z"/>
      <path class="st260" d="M184.4,244.82c-1.93.79-2.66,4.15-3.71,5.57-.27.37-1.88,2.57-2.04,2.6-.32.07-2.65-1.71-3.53-1.48.75-9.83,1.39-19.68,2.23-29.51-.37-.9-5.65.4-5.94,1.67-1.7.4-3.26,1.08-4.83,1.48l-2.6-.19c1.52-3.1-1.47-10.08.93-12.06.77-.64,12.36-4.06,14.11-4.45.8-.18,5.15-1.32,5.38-.56-.98,2.65-1,6.87-.37,9.65.29,1.29,2.55,4.55,2.6,4.83.58,3.45-1.85,17.74-2.23,22.46Z"/>
      <path class="st164" d="M187,237.02l-5.2,40.46c.39-10.85,1.74-21.84,2.6-32.67.37-4.72,2.81-19.01,2.23-22.46-.05-.28-2.31-3.53-2.6-4.83-.63-2.78-.61-7,.37-9.65-.23-.76-4.58.38-5.38.56-1.74.39-13.34,3.82-14.11,4.45-2.4,1.99.6,8.96-.93,12.06l2.6.19c-.74.19-3.37,1.42-3.71.56l-.56-15.41,43.43-10.39-2.41,18-14.48,2.6c-.87,5.47-1.21,11.02-1.86,16.52Z"/>
      <path class="st101" d="M234.51,289.36c2.56,1.05,4.51,3,7.05,4.08l-5.75,11.51,7.61-10.77c3.43.93,5.29,1.04,8.54-.74-.92,4.15-2.6,5.03-4.45,8.17-.88-4.69-3.67,1.75-4.83,3.34.09-1.42-.06-1.12-1.11-.56-.1.61.14,1.51,0,2.04-.24.86-1.36,3.33-.19,3.71l3.53-3.34c-.51,1.59-5.13,13.67-6.12,13.36l-14.66-25.43c3-3.37,6.16-4.44,10.39-5.38Z"/>
      <path class="st98" d="M350.33,270.8c.47,5.86.62,11.79,1.11,17.63-1.69-.07-11.26,1.39-11.88,0l-1.86-17.63c2.59-.09,5.17.19,7.61,0s3.3-2.59,5.01,0Z"/>
      <path class="st94" d="M158.79,212.15c-.05-.11-1.48-1.79-1.48-2.04,0-.33,1.12-.05,1.11-.37-.1-3.31-3.27.19-3.53.19-.75-.02-2.67-4.97-.74-5.94-5.95-.6-11.39.85-16.52,3.71-16.75,9.36-17.41,24.68-4.45,37.86-10.2-8.05-13.07-18.44-7.42-30.44,7.85-12.93,28.26-20.72,40.46-9.09-3.17,2.63-7.02,1.05-7.42,6.12Z"/>
      <path class="st123" d="M278.32,151.64c.97.01,1.26.27,1.86.37,5.29,5.22.14,13.36-5.57,15.59-2-.05-4.4.96-5.57-2.23-2.19-5.95,2.67-13.82,9.28-13.73Z"/>
      <path class="st56" d="M299.48,161.3c-.89-.78-1.06,0-1.11,0-2.88.22-18.5,5.17-21.9,6.68-1.41.66-1.74-.37-1.86-.37,5.7-2.23,10.86-10.37,5.57-15.59,3.29.54,18.26,6.5,19.3,9.28Z"/>
      <path class="st202" d="M150.99,228.86c-.53-2.08-1.22-6.39-2.6-7.98-4.24-4.89-12.39.68-8.54,8.54,5.51,11.23,26.39,13.03,28.58,33.97-1.65.73-.02,3.49-1.11,4.83-.01-1.12-.26-1.68-.37-2.6-2.53-20.95-27.98-27.03-29.7-37.31-.62-3.71.79-7.97,4.45-9.47,6.36-2.6,9.86,4.6,9.28,10.02Z"/>
      <path class="st203" d="M263.47,328.34h1.11c-.88,1.49-6.34,10.27-7.61,10.02l-7.61-16.52c-.35-2.73,1.12-3.82,1.86-5.75,2.97,5.46,4.96,12.25,12.25,12.25Z"/>
      <path class="st202" d="M343.28,219.57c-.58-2.87-3.87-17.99-4.83-19.49-.46-.72-1.93-1.58-2.78-1.3-1.8.6-12.94,31.2-15.03,34.89,1.28-4.24,2.93-8.58,4.08-12.81.13-.49.23-1.71-.74-.93,2.89-8.38,5.95-16.51,9.84-24.5,1.67.93,5.39,2.19,6.12,3.9l3.34,20.23Z"/>
      <path class="st145" d="M230.06,237.76c7.06-18.73-3.74-33.8-23.76-31.55.19-.76.11-2.95.93-3.34,20.92-1.79,32.47,16.47,22.83,34.89Z"/>
      <path class="st122" d="M205.56,263.38c.04,3.26-.65,10.19-1.11,13.55-.1.72-.25,3.66-1.11,3.53-.66-2.98-6.7-10.78-6.68-11.69.02-.98,2.79-2.77,3.34-3.71.15-.27-.15-1.42,0-1.67,1.3-2.13,2.95-3.97,4.45-5.94.78.15,1.1,4.98,1.11,5.94Z"/>
      <path class="st263" d="M396.73,233.31l-1.11-1.48c1.49-8.92-.78-14.23-8.54-18.56-.41-.23-.69-.54-1.11-.74-2.92-2.32-7.97-4.15-11.69-4.83-2.58-.47-19.04-1.35-19.86-.19.29,2.8-.23,5.59-.37,8.35.47-2.38-1.62-8.15.56-9.28,4.85-2.51,24.18.02,29.7,2.23,11.39,4.56,14.54,12.75,12.44,24.5Z"/>
      <path class="st150" d="M280.36,182.45c3.36-.62,3.39,2.41,3.71,2.6.77.45,1.56-1.38,1.67-.19-2.36,1.22-3.64,3.35-5.75,5.01-.68.54-2.23.2-2.97.74-1.89,1.38-2.01,6.67-7.05,4.45-1.35-.59,1.37-5.23,2.04-6.12.88-1.17,7.31-6.3,8.35-6.5Z"/>
      <path class="st196" d="M290.01,252.61c.44-.02,1.43-.13,1.67.19-.59,1.49.12,6.47-.93,7.24-1.19.87-10.72,1.5-12.81,2.04-3.05-4.96,9.24-9.34,12.06-9.47Z"/>
      <path class="st202" d="M198.51,169.83c10.23-8.65,19.74-14.07,32.67-17.82,1.88,1.21,5.56-2.06,6.87,0-6.45,2.58-13.32,4.21-19.67,7.05s-12.04,7.59-17.82,10.39c-.78.38-1.16.49-2.04.37Z"/>
      <path class="st230" d="M251.96,293.45c-3.25,1.79-5.11,1.67-8.54.74-.41-.11-1.38-.54-1.86-.74-2.54-1.08-4.49-3.04-7.05-4.08,6.69-1.49,11.19-1.32,17.63,1.11,1.21.79.01,2.07-.19,2.97Z"/>
      <path class="st206" d="M377.8,255.58l17.08,33.04c-.92.86-1.52.74-2.23-.19-2.33-3.04-11.33-21.98-13.36-26.54-.93-2.08-2.37-4.76-2.23-6.68-.03.58.54.28.74.37Z"/>
      <path class="st74" d="M202.59,289.36c0,.32.91.23.74,2.04-.4,4.46-8.88,4.48-11.69,7.61-3.08.54-1.31-4.22-.19-5.2,1.5-1.31,8.94-3.25,11.14-4.45Z"/>
      <path class="st272" d="M396.73,233.31c-1.43,7.98-6.47,15.83-13.18,20.42-2.1,1.43-3.6,2.81-5.75,1.86,5.07-3.34,9.22-6.34,12.62-11.51,2.14-3.24,4.56-8.44,5.2-12.25l1.11,1.48Z"/>
      <path class="st90" d="M354.41,251.13c-.01,2.61-.88,5.23,0,7.8l-2.6,23.01c-.12-14.8,1.17-29.44,1.86-44.17.26,4.31.76,9.08.74,13.36Z"/>
      <path class="st155" d="M175.12,251.5c-.14,1.88-.19,3.95-.74,5.75-.7-2.87,1.54-7.14-.37-9.47.49-8.35,1.21-16.71,1.86-25.06-.49-.63-3.68.75-4.45.93.28-1.27,5.57-2.57,5.94-1.67-.83,9.83-1.48,19.68-2.23,29.51Z"/>
      <path class="st32" d="M269.04,165.38c1.17,3.18,3.57,2.18,5.57,2.23.11,0,.45,1.03,1.86.37-3.5,1.56-7.51,4.53-10.02,7.42l-1.48-1.11c.06-.26.05-.83,0-1.11,1.92-1,1.4-4.57,1.48-4.83.05-.16,2.51-.91,1.11-2.6.24.03.84-.65,1.48-.37Z"/>
      <path class="st117" d="M175.12,251.5c.88-.22,3.21,1.55,3.53,1.48.16-.03,1.77-2.23,2.04-2.6.44.73-.05.64.37,1.48l-7.61,11.14c-.16-5.07.26-10.17.56-15.22,1.91,2.32-.33,6.6.37,9.47.56-1.8.6-3.87.74-5.75Z"/>
      <path class="st22" d="M187,237.02c-1.92,16.28-3.24,32.65-4.45,49,.16-2.61-.85-5.38-.74-8.54l5.2-40.46Z"/>
      <path class="st249" d="M296.13,244.07c-.07,1.44-.3,2.96-.37,4.45-.27,5.32-.83,10.64-1.11,15.96l-1.11-1.48c.97-14.1,1.85-28.23,2.97-42.32.12,0,.25,0,.37,0-.83,7.73-.38,15.74-.74,23.39Z"/>
      <path class="st242" d="M195.17,262.26c-.62-11.65,2.6-23.6,1.86-35.26.44-3.26-.9-5.28,2.6-6.31l-4.45,41.58Z"/>
      <path class="st197" d="M196.65,271.54c-.25,0-.5,0-.74,0-1.09-.04-1.46,1.84-1.48,2.6-1.95,5.24.15,12.9-3.34,17.82.13-3.77,1.24-21.44,2.23-23.94.05-.13.56-.73.74-.37.77,1.36,1.69,2.63,2.6,3.9Z"/>
      <path class="st34" d="M266.44,175.4c-4.47,5.16-8.07,13.17-13.18,18.19,2.65-6.04,6.75-11.27,9.84-17.08.16-.3,1.78-1.86,1.86-2.23l1.48,1.11Z"/>
      <path class="st100" d="M195.17,262.26c.06,1.16.26,3.08-.37,4.08-1.61-1.26-1.06-1.54-1.11-3.53-.24-9.39,2.03-26.1,3.34-35.82.74,11.67-2.48,23.61-1.86,35.26Z"/>
      <path class="st289" d="M254.75,258.18c3.03-.25,2.28,4.8,1.67,5.75-.3.47-3.49.64-4.27.93-.55-.12-.19-6.45,2.6-6.68Z"/>
      <path class="st151" d="M247.51,301.61c-.36.61-.49,1.02-.74,1.48-1.83.09-1.49,2.16-1.86,3.34-.03.11.04.26,0,.37l-3.53,3.34c-1.17-.38-.05-2.85.19-3.71.45-.41.76-.99,1.11-1.48,1.16-1.59,3.95-8.03,4.83-3.34Z"/>
      <path class="st108" d="M162.5,284.91c-.1-3.17,3.18-6.65,4.08-10.21.48-1.91.76-4.52.74-6.5,1.09-1.33-.53-4.1,1.11-4.83.85,8.14-1.22,14.97-5.94,21.53Z"/>
      <path class="st267" d="M122.41,281.94c.24.83,1.45,3.87,1.86,4.64,1.21,2.3,4.92,4.87,4.45,7.24-4.24-2.99-6.2-6.28-7.8-11.14l1.48-.74Z"/>
      <path class="st170" d="M329.91,146.82c-.15.36-.35,1.58-.74,2.6-.18.04-.67.31-.74.37-.54.5-.32.68-.37.74-.31.39-2.2,1.29-.37,1.48-.45.59-.67.3-.74.37-1.41.17-3.01-.69-2.23,1.11-1.86.99-3.71,1.98-5.57,2.97l10.77-9.65Z"/>
      <polygon class="st246" points="126.68 300.87 130.58 303.28 126.68 307.92 126.68 300.87"/>
      <path class="st201" d="M259.39,266.35c.31.77-.35,1.06-.37,1.11l-15.78,2.23c-.43-.22.39-.59.19-.74.58.56,13.15-2.83,15.96-2.6Z"/>
      <path class="st240" d="M176.23,317.2c-3.08,4.51-7.1,8.42-10.58,12.62-.66-.44-.45-.71-.19-1.3.54-1.2,9.29-10.23,10.77-11.32Z"/>
      <path class="st248" d="M190.9,300.5l-6.12,7.98-7.61,7.61c4.13-5.56,9.46-10.14,13.73-15.59Z"/>
      <path class="st129" d="M353.67,237.39c.23-4.94.18-9.91.37-14.85l-.37,14.85Z"/>
      <path class="st224" d="M309.68,295.3c2.25.15-5.76,2.17-2.23,2.6l-2.41-1.3c-.07-.62,4.39-1.32,4.64-1.3Z"/>
      <path class="st4" d="M172.34,299.38c.08.79.92.62.74,1.11-.11.31-5.33,2.08-6.12,2.41l5.38-3.53Z"/>
      <path class="st210" d="M294.84,167.61c.52-.06,4.39.75,4.27,1.3-1.86-.39-5.17.19-6.12-.93.69.34,1.65-.35,1.86-.37Z"/>
      <path class="st45" d="M290.38,175.4c1.16,1.06-3.32,3.27-4.27,3.16l4.27-3.16Z"/>
      <path class="st184" d="M246.76,303.1c-.6,1.13-.32,2.69-1.86,3.34.37-1.18.03-3.25,1.86-3.34Z"/>
      <path class="st251" d="M266.62,189.88c1.76.73.76,2.32-.37,2.97.79-2.1.1-1.77.37-2.97Z"/>
      <path class="st278" d="M323.23,308.29c-.33,1.54-3.12-.31-2.23-1.11.78.29,1.52.82,2.23,1.11Z"/>
      <path class="st81" d="M163.43,198.79c1.35.21,1.94,1.5,2.78,2.41-1.1-.06-2.44-1.41-2.78-2.41Z"/>
      <path class="st247" d="M313.77,295.3c.19-.1,1.38-.06,1.67.19-.7,2-2.45.23-1.67-.19Z"/>
      <path class="st57" d="M301.89,158.33c.72-.56,1.82.44,0,1.48-.31-.17-.3-1.26,0-1.48Z"/>
      <path class="st223" d="M316.74,294.93c.33-.22,1.41.03,1.67.56-.65.54-2.62.08-1.67-.56Z"/>
      <path class="st157" d="M294.09,172.43c.52-.23,1.19,1.35.74,1.48-.63.24-.85-1.44-.74-1.48Z"/>
      <path class="st148" d="M291.49,316.09l-.37,1.86c-.85-.47-.21-1.28.37-1.86Z"/>
      <path class="st41" d="M180.5,321.29c1.81-.62.04,1.27-.37,1.11-.5-.19.07-1.01.37-1.11Z"/>
      <path class="st124" d="M299.48,161.3c.73.16.2.19,0,.37h-1.11v-.37c.06,0,.22-.78,1.11,0Z"/>
      <path class="st180" d="M307.83,156.47c.23.02.89.89.37,1.11-.79.35-1.08-1.18-.37-1.11Z"/>
      <path class="st174" d="M217.62,304.21c.55.17-.14,1.3-.74,1.11-.41-.13.67-1.13.74-1.11Z"/>
      <path class="st216" d="M178.83,323.88c-.52.32-.73.78-.74-.19.24-.21.38-.52.74-.56v.74Z"/>
      <path class="st28" d="M298.55,170.95l1.3.56c-.07.38-2.13.37-1.3-.56Z"/>
      <path class="st217" d="M315.62,299.76c.56-.2.82.55.37.74-.54.24-.82-.58-.37-.74Z"/>
      <path class="st138" d="M290.38,314.6c.52.07-.13,1.15-.37,1.11-.52-.07.13-1.15.37-1.11Z"/>
      <path class="st226" d="M315.99,153.87c.96-.51,1.07.66.37.74-.04,0-.75-.54-.37-.74Z"/>
      <path class="st46" d="M178.83,323.88v-.74c.27-.03.56-.1.74.19-.18.3-.47.39-.74.56Z"/>
      <polygon class="st39" points="176.79 325 176.98 325.55 176.42 325.74 176.23 325.55 176.79 325"/>
      <polygon class="st175" points="304.49 158.33 305.04 158.51 304.49 159.07 304.3 158.88 304.49 158.33"/>
      <path class="st140" d="M168.81,328.71s-.12-.73.19-.74l.56.56c-.13.32-.75.15-.74.19Z"/>
      <polygon class="st188" points="297.43 170.58 297.81 170.95 297.81 171.32 297.43 171.32 297.43 170.58"/>
      <path class="st95" d="M299.48,161.67c-.45.43-.9.76-1.11,0h1.11Z"/>
      <polygon class="st48" points="306.71 152.39 307.27 152.57 307.09 153.13 306.9 152.94 306.71 152.39"/>
      <path class="st240" d="M176.23,317.2s.35-.99.74-.56c.18.78-.71.51-.74.56Z"/>
      <polygon class="st143" points="295.95 175.4 296.51 175.59 295.95 176.14 295.76 175.96 295.95 175.4"/>
      <polygon class="st105" points="305.97 159.44 306.53 159.62 305.97 160.18 305.79 160 305.97 159.44"/>
      <polygon class="st189" points="306.71 154.98 307.27 155.17 307.09 155.73 306.9 155.54 306.71 154.98"/>
      <g>
        <path class="st294" d="M278.32,151.64c-6.61-.09-11.47,7.79-9.28,13.73-.64-.28-1.25.41-1.48.37-.07-.01-.75-.88-1.3-.74-2.1.54-2.43,3.4.19,3.34-.09.26.43,3.82-1.48,4.83-.65-4.03-6.39-1.66-8.35,0-2.09,1.77-4.35,7.4-5.2,10.02-.21.66-.59,1.61.56,1.48-2.81,3.76-4.38,8.3-6.87,12.25l-17.63,1.3,2.04,9.09c-5.7-5.03-13.22-7.51-20.79-7.05l.74-3.34-34.52,6.31c4.09-13.37,13.05-24.5,23.57-33.41.89.12,1.26,0,2.04-.37,5.78-2.8,11.45-7.55,17.82-10.39s13.22-4.48,19.67-7.05c-1.31-2.06-4.99,1.21-6.87,0,15.43-4.48,31.63-5.43,47.14-.37Z"/>
        <path class="st60" d="M248.06,149.42c2.7-.18,13.77-.65,12.44,3.9-.77,2.61-19.87,4.86-21.53,2.23-3.05-4.84,6.3-5.94,9.09-6.12Z"/>
        <path class="st279" d="M258.46,160.55c4.82-.44,3.69,7.46-1.11,6.31-3.21-.77-1.96-6.03,1.11-6.31Z"/>
        <path class="st121" d="M238.41,190.25c3.48-1.08,4.9,3.41,2.23,4.83-3.6,1.91-5.21-3.9-2.23-4.83Z"/>
        <path class="st202" d="M201.66,178.37c4.23-.85,3.18,6.03-.74,4.45-1.65-.66-1.05-4.09.74-4.45Z"/>
        <path class="st93" d="M267.55,165.75c1.4,1.69-1.06,2.44-1.11,2.6-2.61.06-2.29-2.81-.19-3.34.54-.14,1.23.73,1.3.74Z"/>
        <path class="st282" d="M265.51,153.13c1.56-.25,1.73,1.76.74,2.23-1.61.76-2.5-1.94-.74-2.23Z"/>
      </g>
      <g>
        <path class="st63" d="M230.06,237.76c-3.2,8.48-8.06,9.15-13.36,14.11-.12.12-1.01-.3-.74.93,2.53,4.3,3.85,9.66,7.05,13.55-.01,3.24-5.42,11.41-6.5,14.85l-10.21-23.57c.02-2.1,5.6-6.87,6.31-8.91.2-.57.51-.86-.19-1.3-4.41,5.23-7.62,8.6-6.87,15.96-.01-.96-.33-5.79-1.11-5.94-2.33.63-3.48,4.11-4.83,5.57-.48.52-3.98,4.05-4.27,4.08-.22.03-.52-.71-.56-.74.63-1,.43-2.92.37-4.08l4.45-41.58c.87-.26,4.41.01,4.83-.93.83-1.87,1.08-10.47,1.86-13.55,20.01-2.24,30.82,12.82,23.76,31.55Z"/>
        <path class="st239" d="M216.7,251.87c1,3.38,6.32,11.4,6.31,14.48-3.2-3.89-4.52-9.25-7.05-13.55-.27-1.23.62-.81.74-.93Z"/>
        <path class="st119" d="M204.45,257.44c-1.51,1.97-3.16,3.81-4.45,5.94l-.37-.37c1.35-1.46,2.5-4.93,4.83-5.57Z"/>
        <path class="st131" d="M219.29,224.03c1.57,7.89-4.1,15.28-10.95,18.56l2.04-23.39c3.92-.33,7.2,1.24,8.91,4.83Z"/>
        <path class="st79" d="M210.39,219.2l-2.04,23.39c6.85-3.28,12.52-10.67,10.95-18.56,3.9,8.2-3.82,17.12-11.69,19.67l2.78-24.5Z"/>
      </g>
      <path class="st35" d="M159.9,271.17c8.46,4.21-5.32,8.09-1.86,1.11.26-.52,1.78-1.03,1.86-1.11Z"/>
      <path class="st270" d="M133.17,245.56c.62.49,1.72.89,2.23,1.67-1.2.46-1.79-1.22-2.23-1.67Z"/>
      <g>
        <path class="st73" d="M395.62,231.82c-.64,3.81-3.06,9.01-5.2,12.25-1.92-.51-3.91,2.88-5.38,4.08s-6.86,4.37-7.8,5.57c-1,1.28-.14.94-.19,1.48-.15,1.92,1.3,4.6,2.23,6.68-2.35,3.05-4.31,7.13-7.8,8.91-1.91-4.67-4.28-9.3-6.31-13.92l-3.53,37.31-10.21-3.16c.42-3.03.4-6.05.37-9.09l2.6-23.01,11.14-15.59c.01.6-.15,1.35.19,1.86.35-.42.41-1,.56-1.48.9.34.11,1.06,0,1.48-.11.45-.75.9-.19,1.48,9.15-3.33,14.62-6.34,18-15.78.28-.78-.28-2.93,0-3.71,1.39-3.94,6.89-8.88,2.97-13.92,7.76,4.33,10.03,9.64,8.54,18.56Z"/>
        <path class="st55" d="M390.42,244.07c-3.4,5.16-7.55,8.17-12.62,11.51-.21-.09-.77.21-.74-.37.04-.54-.81-.21.19-1.48.94-1.19,6.33-4.37,7.8-5.57s3.47-4.59,5.38-4.08Z"/>
        <path class="st255" d="M359.05,282.68c2.21.19,1.01,3.26,0,3.34-1.65.14-2.56-3.56,0-3.34Z"/>
        <path class="st237" d="M356.83,286.76c3.43-.34.78,3.97-1.86,2.23-.43-.5,1.32-2.17,1.86-2.23Z"/>
        <path class="st5" d="M356.08,265.23c.13-.09.82-.06.93.19.28.62-2.12.62-.93-.19Z"/>
      </g>
      <path class="st207" d="M333.26,224.03l2.97,31.37-11.51,1.67c1.35-5.23,2.37-10.69,3.71-15.96s2.5-12.23,4.08-16.89c.27-.78,0-.53.74-.19Z"/>
      <g>
        <path class="st169" d="M345.51,234.79c1.91,11.92,3.86,23.96,4.83,36.01-1.71-2.59-2.64-.19-5.01,0s-5.02-.09-7.61,0c-5.35.18-10.78-.12-16.15.37-1.41.56-3.24,12.28-4.08,12.99-.47.4-11.86,1.54-12.06.93l10.02-36.56c3.65-3.02,8.35-6.34,12.99-7.42-1.34,5.27-2.36,10.73-3.71,15.96-.01.06-1.26-.05-.93.74l12.81-1.3c-.7-6.33-.81-12.79-1.48-19.12,1.29,2.31,7.62,3.19,8.91.93.76-1.33-.47-3.65,1.48-3.53Z"/>
        <path class="st179" d="M335.11,237.39c.67,6.32.78,12.78,1.48,19.12l-12.81,1.3c-.33-.79.91-.68.93-.74l11.51-1.67-2.97-31.37c.71,4.38,1.38,8.94,1.86,13.36Z"/>
        <path class="st65" d="M331.59,260.04c-4.01,8.23-14.02,10.14-15.41,19.86l-2.41-.93,17.82-18.93Z"/>
      </g>
      <g>
        <path class="st1" d="M264.58,327.97l-1.11.37c-7.29,0-9.28-6.79-12.25-12.25,2.18-5.74,5.26-11.85,8.91-16.52,4.43,11.99,8.58-6.16,10.21-7.24,3.11-2.06,17.22-2.29,21.53-3.71l-27.28,39.35Z"/>
        <polygon class="st165" points="264.58 327.97 264.58 328.34 263.47 328.34 264.58 327.97"/>
        <path class="st227" d="M276.28,298.64c3.58-.45,1.86,4.57-.74,4.08-2.21-.41-1-3.86.74-4.08Z"/>
      </g>
      <g>
        <path class="st102" d="M343.28,219.57c1.03,5.07,1.41,10.14,2.23,15.22-1.96-.13-.73,2.2-1.48,3.53-1.29,2.26-7.62,1.38-8.91-.93-.47-4.42-1.15-8.98-1.86-13.36-.74-.35-.48-.6-.74.19-1.58,4.66-2.8,11.82-4.08,16.89-4.64,1.09-9.34,4.4-12.99,7.42,2.57-9.6,5.3-19.19,8.54-28.58.98-.78.88.44.74.93-1.15,4.23-2.8,8.56-4.08,12.81-.66.03-.25.79-.37,1.11-.15.4-.24.75-.37,1.11-.15.4-.24.72-.37,1.11s-.25.69-.37,1.11c-.07.25-.24.65-.37,1.11-.21.57-1.13,1.49-.56,2.23.67-.66.39-1.63.56-2.23.15-.39.24-.75.37-1.11.15-.4.24-.71.37-1.11.12-.36.25-.72.37-1.11.1-.34.26-.73.37-1.11.1-.33.26-.74.37-1.11,2.1-3.7,13.23-34.29,15.03-34.89.85-.28,2.33.58,2.78,1.3.95,1.49,4.24,16.62,4.83,19.49Z"/>
        <path class="st281" d="M334.93,203.61c1.85-.83,2.04,2.54.74,2.97-2.3.76-1.69-2.55-.74-2.97Z"/>
        <path class="st202" d="M318.78,239.25c-.16.59.11,1.57-.56,2.23-.58-.73.35-1.65.56-2.23Z"/>
        <path class="st202" d="M320.26,234.79c.12-.32-.29-1.08.37-1.11-.11.38-.27.78-.37,1.11Z"/>
        <path class="st202" d="M319.89,235.91c.13-.36.22-.71.37-1.11-.11.38-.27.77-.37,1.11Z"/>
        <path class="st202" d="M319.52,237.02c.13-.39.22-.71.37-1.11-.12.39-.26.75-.37,1.11Z"/>
        <path class="st202" d="M319.15,238.14c.12-.42.24-.73.37-1.11-.13.4-.22.71-.37,1.11Z"/>
        <path class="st202" d="M318.78,239.25c.13-.46.3-.86.37-1.11-.13.36-.23.72-.37,1.11Z"/>
      </g>
      <g>
        <path class="st87" d="M394.88,288.62l.74,1.67-12.44,13.55c-3.61-11.08-7.29-22.26-11.69-33.04,3.48-1.78,5.44-5.86,7.8-8.91,2.03,4.56,11.03,23.5,13.36,26.54.71.92,1.31,1.05,2.23.19Z"/>
        <path class="st208" d="M386.9,288.99l.56,4.27c-4.01.95-1.57-1.34-3.71-2.97l3.16-1.3Z"/>
        <path class="st135" d="M390.61,288.99c1.93-.5.6,2.42-.37,2.23-1.02-.21-.12-2.1.37-2.23Z"/>
        <path class="st125" d="M389.12,288.25c.64-.28.79.93.37,1.11-.64.28-.79-.93-.37-1.11Z"/>
        <path class="st54" d="M385.78,294.56c.18-.01.25.33.19.56-.21,1.38-.66-.53-.19-.56Z"/>
      </g>
      <path class="st18" d="M243.42,294.19l-7.61,10.77,5.75-11.51c.48.2,1.45.63,1.86.74Z"/>
      <path class="st116" d="M242.68,304.95c-.36.49-.66,1.08-1.11,1.48.14-.53-.1-1.43,0-2.04,1.06-.56,1.21-.86,1.11.56Z"/>
      <g>
        <path class="st238" d="M158.79,212.15c.76,1.66,2.6,7.21,1.86,8.72-.31.63-.9-.22-.93-.19-.9,1.14-1.89,2.21-2.78,3.34-1.63.07-.99,1.76-2.6,2.78l2.04-.93.56,1.86c-1.84,1.22-3.93,2.09-5.75,3.34-.44-.34-.05-1.68-.19-2.23.58-5.42-2.92-12.62-9.28-10.02l-4.08-11.14c5.13-2.87,10.57-4.32,16.52-3.71-1.92.97,0,5.92.74,5.94.26,0,3.42-3.5,3.53-.19.01.33-1.12.04-1.11.37,0,.26,1.43,1.93,1.48,2.04Z"/>
        <path class="st254" d="M156.93,224.03c1.18-.05,2.88.14,2.6,2.04-.13.88-2.17,1.39-2.6,1.67l-.56-1.86-2.04.93c1.6-1.02.97-2.71,2.6-2.78Z"/>
        <path class="st229" d="M154.52,211.04c1.06-.06,2.92,2.47.74,2.97-2.55.59-2.37-2.88-.74-2.97Z"/>
        <path class="st97" d="M157.12,213.26l-.37,3.71c-1.37-1.69-.92-2.18.37-3.71Z"/>
        <path class="st36" d="M157.49,218.09c1.32-.61.46,3.47.37,3.71l-.37-3.71Z"/>
      </g>
      <g>
        <path class="st0" d="M184.4,244.82c-.86,10.83-2.21,21.82-2.6,32.67-.11,3.15.9,5.93.74,8.54-.19,3.26-8.22,4.11-10.77,6.12l1.11-24.87c.17-2.09,4.4-5.16,4.83-5.94.22-.4-.59-.71-.37-1.11.62-1.15,4.35-7.66,4.45-8.17.2-1-.69-.09-.74-.19-.43-.84.07-.75-.37-1.48,1.05-1.42,1.78-4.77,3.71-5.57Z"/>
        <path class="st80" d="M177.9,280.45l2.78,3.9c-.71,1.63-2.61.47-2.78.56-.54.28-2.68,3.6-3.71,4.08l3.71-8.54Z"/>
        <path class="st128" d="M175.68,272.29c.84-.46,1.32.8.74,1.11-.84.46-1.32-.8-.74-1.11Z"/>
      </g>
      <g>
        <path class="st225" d="M196.65,271.54c1.94,2.71,3.2,5.97,4.83,8.35.93,1.37.65-.54.93-.56l.93,1.11c.22,1.01.32,1.53.37,2.6l-1.11-.93c0,2.29-.01,4.58,0,6.87,0,.12,0,.25,0,.37-2.19,1.21-9.63,3.15-11.14,4.45-.61-.17-.39-1.34-.37-1.86,3.49-4.91,1.39-12.58,3.34-17.82.23-.61,1.31-1.76,1.48-2.6.25,0,.5,0,.74,0Z"/>
        <path class="st53" d="M203.7,283.05c.06,1.29-.01,5.02-1.11,5.94-.01-2.28,0-4.58,0-6.87l1.11.93Z"/>
        <path class="st147" d="M196.84,287.51c2.01.99.12,1.64-1.11,2.23l1.11-2.23Z"/>
        <path class="st17" d="M195.91,271.54c-.17.84-1.26,1.99-1.48,2.6.02-.75.4-2.64,1.48-2.6Z"/>
      </g>
      <g>
        <path class="st187" d="M264.95,173.17c.05.28.06.85,0,1.11-.08.37-1.7,1.93-1.86,2.23-4.59.84-8.45,4.57-11.14,8.17-1.15.13-.77-.82-.56-1.48.84-2.63,3.1-8.26,5.2-10.02,1.97-1.66,7.7-4.03,8.35,0Z"/>
        <path class="st285" d="M261.06,174.29h.37c.73-.06.73.43,0,.37l-.37-.37Z"/>
      </g>
      <g>
        <path class="st9" d="M385.97,212.52c-9.84-4.77-19.76-4.48-30.44-3.53l-1.11,42.13c.02-4.29-.48-9.06-.74-13.36,0-.12,0-.25,0-.37l.37-14.85c.08-2.21-.11-4.47,0-6.68.14-2.76.66-5.55.37-8.35.82-1.17,17.28-.28,19.86.19,3.72.68,8.77,2.5,11.69,4.83Z"/>
        <path class="st103" d="M385.97,212.52c.43.21.7.51,1.11.74,3.93,5.04-1.58,9.98-2.97,13.92-.28.79.28,2.93,0,3.71-3.38,9.43-8.85,12.45-18,15.78-.56-.59.07-1.04.19-1.48,15.3-3.48,25.01-23.54,2.78-25.24-.8.29-1.46,13.67-1.67,15.59-1.97-.18-1.89,6.15-1.86,7.8l-11.14,15.59c-.88-2.57-.01-5.19,0-7.8l1.11-42.13c10.68-.96,20.6-1.24,30.44,3.53Z"/>
        <path class="st183" d="M367.41,235.54c-.27,2.45-.41,5.92-1.11,8.17-.15.48-.2,1.07-.56,1.48-.34-.5-.17-1.26-.19-1.86-.03-1.64-.11-7.98,1.86-7.8Z"/>
        <path class="st288" d="M360.17,213.64c1.1-.81,1.93,1.2.74,1.48s-1.18-1.16-.74-1.48Z"/>
      </g>
      <g>
        <path class="st173" d="M366.29,245.19c.11-.42.9-1.15,0-1.48.7-2.25.85-5.72,1.11-8.17.21-1.92.87-15.3,1.67-15.59,22.22,1.7,12.52,21.77-2.78,25.24Z"/>
        <path class="st60" d="M372.42,227c13.93.91,5.42,11.31-1.86,14.48l1.86-14.48Z"/>
      </g>
    </g>
  </g>
</svg>